<svg xmlns="http://www.w3.org/2000/svg" viewBox="0 0 266 266"><defs><style>.cls-1{fill:none;}.cls-2{fill:#fff;}</style></defs><g id="transparent"><ellipse class="cls-1" cx="133" cy="133" rx="127.82" ry="128.15" transform="translate(-55.09 133) rotate(-45)"/><path class="cls-2" d="M160.5,133A27.5,27.5,0,1,1,133,105.5,27.5,27.5,0,0,1,160.5,133ZM198,119.07H177.05A44.14,44.14,0,0,0,174,111.7l14.8-14.82L169.11,77.19,154.3,92a45,45,0,0,0-7.37-3.06V68H119.07V88.94A45.51,45.51,0,0,0,111.69,92L96.87,77.19,77.19,96.89,92,111.7a45.07,45.07,0,0,0-3.07,7.37H68v27.86H88.93A45.07,45.07,0,0,0,92,154.3L77.19,169.11l19.7,19.7L111.69,174a45.1,45.1,0,0,0,7.38,3.05V198h27.86V177.07A46,46,0,0,0,154.3,174l14.81,14.81,19.7-19.7L174,154.31a44.24,44.24,0,0,0,3.05-7.38H198Z"/></g></svg>