<svg xmlns="http://www.w3.org/2000/svg" viewBox="0 0 266 266"><defs><style>.cls-1{fill:none;}.cls-2{fill:#fff;}</style></defs><g id="transparent"><ellipse class="cls-1" cx="133" cy="133" rx="127.82" ry="128.15" transform="translate(-55.09 133) rotate(-45)"/><path class="cls-2" d="M117,113A19,19,0,1,1,98,94,19,19,0,0,1,117,113Zm19.6,25-10.25-10.24a31.75,31.75,0,0,0,2.11-5.11H143v-19.3H128.5a31.64,31.64,0,0,0-2.11-5.1L136.63,88,123,74.36,112.75,84.61a30.76,30.76,0,0,0-5.1-2.11V68H88.35V82.5a32.13,32.13,0,0,0-5.11,2.11L73,74.36,59.36,88,69.61,98.25a31.68,31.68,0,0,0-2.12,5.1H53v19.3H67.49a31.68,31.68,0,0,0,2.12,5.1L59.36,138,73,151.64l10.24-10.25a32.69,32.69,0,0,0,5.11,2.11V158h19.3V143.51a32.62,32.62,0,0,0,5.1-2.12L123,151.64Z"/><path class="cls-2" d="M213,169.67v-15H201.72a23.75,23.75,0,0,0-1.64-4l8-8-10.6-10.61-8,8a24.25,24.25,0,0,0-4-1.65V127.17h-15v11.27a24.72,24.72,0,0,0-4,1.65l-8-8L148,142.72l8,8a23.78,23.78,0,0,0-1.65,4H143v15h11.27a24.25,24.25,0,0,0,1.65,4l-8,8,10.6,10.61,8-8a25.22,25.22,0,0,0,4,1.64v11.28h15V185.89a25.11,25.11,0,0,0,4-1.64l8,8,10.6-10.61-8-8a23.85,23.85,0,0,0,1.64-4ZM178,177a14.81,14.81,0,1,1,14.81-14.8A14.81,14.81,0,0,1,178,177Z"/></g></svg>