<svg width="120" height="125" viewBox="0 0 120 125" fill="none" xmlns="http://www.w3.org/2000/svg">
<rect x="0.5" y="60.0634" width="10.8182" height="64.9345" rx="4" fill="#80BBE4"/>
<rect x="0.5" y="60.0634" width="10.8182" height="64.9345" rx="4" fill="black" fill-opacity="0.52"/>
<rect x="0.5" y="60.0634" width="10.8182" height="64.9345" rx="4" fill="white" fill-opacity="0.64"/>
<rect x="22.1364" y="32.4678" width="10.8182" height="92.5317" rx="4" fill="#80BBE4"/>
<rect x="22.1364" y="32.4678" width="10.8182" height="92.5317" rx="4" fill="white" fill-opacity="0.4"/>
<rect x="22.1364" y="32.4678" width="10.8182" height="92.5317" rx="4" fill="black" fill-opacity="0.36"/>
<rect x="22.1364" y="32.4678" width="10.8182" height="92.5317" rx="4" fill="white" fill-opacity="0.64"/>
<rect x="43.7727" width="10.8182" height="124.999" rx="4" fill="#80BBE4"/>
<rect x="43.7727" width="10.8182" height="124.999" rx="4" fill="white" fill-opacity="0.2"/>
<rect x="43.7727" width="10.8182" height="124.999" rx="4" fill="black" fill-opacity="0.48"/>
<rect x="43.7727" width="10.8182" height="124.999" rx="4" fill="white" fill-opacity="0.64"/>
<rect x="65.4091" y="29.2196" width="10.8182" height="95.7784" rx="4" fill="#80BBE4"/>
<rect x="65.4091" y="29.2196" width="10.8182" height="95.7784" rx="4" fill="white" fill-opacity="0.55"/>
<rect x="65.4091" y="29.2196" width="10.8182" height="95.7784" rx="4" fill="black" fill-opacity="0.2"/>
<rect x="65.4091" y="29.2196" width="10.8182" height="95.7784" rx="4" fill="white" fill-opacity="0.56"/>
<rect x="87.0454" y="27.5983" width="10.8182" height="97.4017" rx="4" fill="#80BBE4"/>
<rect x="87.0454" y="27.5983" width="10.8182" height="97.4017" rx="4" fill="black" fill-opacity="0.6"/>
<rect x="87.0454" y="27.5983" width="10.8182" height="97.4017" rx="4" fill="white" fill-opacity="0.6"/>
<rect x="108.682" y="45.4548" width="10.8182" height="79.5447" rx="4" fill="#80BBE4"/>
<rect x="108.682" y="45.4548" width="10.8182" height="79.5447" rx="4" fill="white" fill-opacity="0.2"/>
<rect x="108.682" y="45.4548" width="10.8182" height="79.5447" rx="4" fill="black" fill-opacity="0.36"/>
<rect x="108.682" y="45.4548" width="10.8182" height="79.5447" rx="4" fill="white" fill-opacity="0.56"/>
</svg>
