<svg xmlns="http://www.w3.org/2000/svg" width="262" height="295" viewBox="0 0 262 295">
    <defs>
        <filter id="Rectangle_686" width="262" height="295" x="0" y="0" filterUnits="userSpaceOnUse">
            <feOffset dy="1"/>
            <feGaussianBlur result="blur" stdDeviation="3"/>
            <feFlood flood-opacity=".161"/>
            <feComposite in2="blur" operator="in"/>
            <feComposite in="SourceGraphic"/>
        </filter>
        <style>
            .cls-3{fill:#bcbaba}.cls-11,.cls-7,.cls-8{isolation:isolate}.cls-8{font-size:7px;font-family:OpenSans-Semibold,Open Sans;font-weight:600}.cls-11{font-size:5px;font-family:OpenSans,Open Sans}
        </style>
    </defs>
    <g id="value-area-card" transform="translate(-140 -1528)">
        <g id="widget_all" transform="translate(149 1536)">
            <g filter="url(#Rectangle_686)" transform="matrix(1, 0, 0, 1, -9, -8)">
                <rect id="Rectangle_686-2" width="244" height="277" fill="#fff" rx="15" transform="translate(9 8)"/>
            </g>
            <text id="Value_Area" fill="#707070" font-family="OpenSans-Bold, Open Sans" font-size="8px" font-weight="700" transform="translate(14 20)">
                <tspan x="0" y="0">Value Area</tspan>
            </text>
            <g id="mono" transform="translate(223.186 100.546)">
                <path id="Path_957" d="M86.454 84a2.455 2.455 0 1 0 2.269 1.524A2.446 2.446 0 0 0 86.454 84zm1.439 3.7a1.9 1.9 0 0 1-3.072-2.223.557.557 0 0 0 .57.434.543.543 0 0 0 .507-.49.557.557 0 0 0-.426-.587 1.864 1.864 0 0 1 2.2.166 1.9 1.9 0 0 1 .217 2.7z" class="cls-3" transform="translate(-80.044 -80.29)"/>
                <path id="Path_958" d="M11.4 5a6.4 6.4 0 1 0 6.4 6.4A6.4 6.4 0 0 0 11.4 5zm.006 9.656a3.252 3.252 0 1 1 3.25-3.256 3.252 3.252 0 0 1-3.246 3.256z" class="cls-3" transform="translate(-5 -5)"/>
            </g>
            <g id="mono-2" transform="translate(223.186 40.987)">
                <path id="Path_955" d="M11.4 5a6.4 6.4 0 1 0 6.4 6.4A6.4 6.4 0 0 0 11.4 5zm.786 9.656h-1.567V10.1h1.571zM11.4 9.785a.817.817 0 1 1 .817-.816.817.817 0 0 1-.817.816z" class="cls-3" transform="translate(-5 -5)"/>
            </g>
            <g id="mono-3" transform="translate(223.186 10.887)">
                <path id="Path_956" d="M11.4 5a6.4 6.4 0 1 0 6.4 6.4A6.4 6.4 0 0 0 11.4 5zm-.51 3.607l.564-.755 1.127 1.509H12.1v1.287h-1.29V9.362h-.484zm-1.479 3.924L7.9 11.4l.754-.564.754-.563v.484H10.7v1.287H9.411zm2.043 2.425l-1.128-1.509h.484V12.16h1.29v1.287h.484zm2.046-2.424v-.484h-1.291v-1.287H13.5v-.484l.755.563.755.564z" class="cls-3" transform="translate(-5 -5)"/>
            </g>
            <g id="mono-4" transform="translate(223.186 70.446)">
                <path id="Path_959" d="M11.455 5A6.4 6.4 0 0 0 5 11.455a6.5 6.5 0 0 0 6.344 6.345 6.4 6.4 0 0 0 6.456-6.456A6.5 6.5 0 0 0 11.455 5zm1.57 5.508L11.9 11.882v2.405h-1v-2.405L9.773 10.5 8.147 8.512h6.5z" class="cls-3" transform="translate(-4.995 -4.995)"/>
            </g>
            <path id="Line_72" fill="none" stroke="#bcbaba" stroke-width="2px" d="M0 0L0 277" transform="translate(215)"/>
        </g>
        <g id="Group_877" transform="translate(162.854 1576.346)">
            <g id="zingchart-react-7-main" transform="translate(23.957 0)">
                <g id="zingchart-react-7-graphset" transform="translate(0 20.501)">
                    <g id="zingchart-react-7-graph-id0">
                        <g id="zingchart-react-7-graph-id0-plots-bl-1">
                            <g id="zingchart-react-7-graph-id0-plot-0-bl-1-c" transform="translate(1.963 67.002)">
                                <path id="zingchart-react-7-graph-id0-plotset-plot-0-node-0-path" fill="#3777c1" stroke="#fff" stroke-linecap="round" stroke-linejoin="round" stroke-width="0.25px" d="M4241.136 2023.29h13.4a66.988 66.988 0 0 1-132.029 16.036l13.006-3.21a53.591 53.591 0 0 0 105.624-12.828" transform="translate(-4122.505 -2023.29)"/>
                            </g>
                            <g id="zingchart-react-7-graph-id0-plot-1-bl-1-c">
                                <path id="zingchart-react-7-graph-id0-plotset-plot-1-node-0-path" fill="#a3c7e5" stroke="#fff" stroke-linecap="round" stroke-linejoin="round" stroke-width="0.25px" d="M4133.959 1983.1l-13.006 3.21a66.988 66.988 0 1 1 132.029-16.036h-13.4a53.591 53.591 0 1 0-105.623 12.829" transform="translate(-4118.99 -1903.266)"/>
                            </g>
                        </g>
                    </g>
                </g>
                <g id="zingchart-react-7-text" transform="translate(22.654 0)">
                    <g id="zingchart-react-7-graph-id0-plotset-plot-0-node-0-value-box-1" class="cls-7" transform="translate(64.575 169.358)">
                        <text id="_46.2_" class="cls-8" transform="translate(0 7)">
                            <tspan x="0" y="0">46.2%</tspan>
                        </text>
                    </g>
                    <g id="zingchart-react-7-graph-id0-plotset-plot-1-node-0-value-box-1" class="cls-7">
                        <text id="_53.8_" class="cls-8" transform="translate(0 7)">
                            <tspan x="0" y="0">53.8%</tspan>
                        </text>
                    </g>
                </g>
            </g>
            <g id="Group_1479" transform="translate(0 207.915)">
                <circle id="zingchart-react-7-graph-id0-legend-marker_0-circle" cx="3.279" cy="3.279" r="3.279" fill="#3777c1" transform="translate(0 0.64)"/>
                <circle id="zingchart-react-7-graph-id0-legend-marker_1-circle" cx="3.279" cy="3.279" r="3.279" fill="#a3c7e5" transform="translate(69.449 0.64)"/>
                <text id="Architectural" class="cls-11" transform="translate(13.403 5)">
                    <tspan x="0" y="0">Architectural</tspan>
                </text>
                <text id="Business" class="cls-11" transform="translate(82.852 5)">
                    <tspan x="0" y="0">Business</tspan>
                </text>
            </g>
        </g>
    </g>
</svg>
