<svg xmlns="http://www.w3.org/2000/svg" width="262" height="295" viewBox="0 0 262 295">
    <defs>
        <filter id="Rectangle_686" width="262" height="295" x="0" y="0" filterUnits="userSpaceOnUse">
            <feOffset dy="1"/>
            <feGaussianBlur result="blur" stdDeviation="3"/>
            <feFlood flood-opacity=".161"/>
            <feComposite in2="blur" operator="in"/>
            <feComposite in="SourceGraphic"/>
        </filter>
        <style>
            .cls-3{fill:#bcbaba}.cls-7,.cls-8,.cls-9{isolation:isolate}.cls-8{font-size:7px;font-family:OpenSans-Semibold,Open Sans;font-weight:600}.cls-9{font-size:5px;font-family:OpenSans,Open Sans}
        </style>
    </defs>
    <g id="WIP_COS" transform="translate(-985.299 -1047)">
        <g id="widget_all" transform="translate(994.299 1055)">
            <g filter="url(#Rectangle_686)" transform="matrix(1, 0, 0, 1, -9, -8)">
                <rect id="Rectangle_686-2" width="244" height="277" fill="#fff" rx="15" transform="translate(9 8)"/>
            </g>
            <text id="Classes_Of_Service" fill="#707070" font-family="OpenSans-Bold, Open Sans" font-size="8px" font-weight="700" transform="translate(14 20)">
                <tspan x="0" y="0">Classes Of Service</tspan>
            </text>
            <g id="mono" transform="translate(223.459 100.669)">
                <path id="Path_957" d="M86.457 84a2.458 2.458 0 1 0 2.272 1.526A2.449 2.449 0 0 0 86.457 84zm1.443 3.7a1.9 1.9 0 0 1-3.076-2.226.558.558 0 0 0 .571.435.544.544 0 0 0 .507-.491.558.558 0 0 0-.427-.588 1.866 1.866 0 0 1 2.206.17 1.9 1.9 0 0 1 .217 2.7z" class="cls-3" transform="translate(-80.039 -80.286)"/>
                <path id="Path_958" d="M11.412 5a6.412 6.412 0 1 0 6.412 6.412A6.412 6.412 0 0 0 11.412 5zm.006 9.668a3.256 3.256 0 1 1 3.251-3.26 3.256 3.256 0 0 1-3.251 3.26z" class="cls-3" transform="translate(-5 -5)"/>
            </g>
            <g id="mono-2" transform="translate(223.459 41.037)">
                <path id="Path_955" d="M11.412 5a6.412 6.412 0 1 0 6.412 6.412A6.412 6.412 0 0 0 11.412 5zm.786 9.668h-1.572V10.11H12.2zm-.786-4.878a.818.818 0 1 1 .818-.817.818.818 0 0 1-.818.817z" class="cls-3" transform="translate(-5 -5)"/>
            </g>
            <g id="mono-3" transform="translate(223.459 10.9)">
                <path id="Path_956" d="M11.412 5a6.412 6.412 0 1 0 6.412 6.412A6.412 6.412 0 0 0 11.412 5zM10.9 8.611l.565-.756 1.129 1.511h-.484v1.289h-1.293V9.367h-.485zm-1.484 3.93l-1.511-1.129.755-.565.755-.564v.484h1.289v1.288H9.416zm2.046 2.428l-1.129-1.511h.485v-1.29h1.288v1.288h.484zm2.045-2.428v-.484h-1.289v-1.289h1.288v-.484l.756.564.756.565z" class="cls-3" transform="translate(-5 -5)"/>
            </g>
            <g id="mono-4" transform="translate(223.46 70.533)">
                <path id="Path_959" d="M11.463 5A6.412 6.412 0 0 0 5 11.463a6.506 6.506 0 0 0 6.356 6.356 6.412 6.412 0 0 0 6.467-6.467A6.506 6.506 0 0 0 11.463 5zm1.572 5.515l-1.127 1.38V14.3h-1v-2.41l-1.129-1.38-1.628-1.994h6.512z" class="cls-3" transform="translate(-4.995 -4.995)"/>
            </g>
            <path id="Line_72" fill="none" stroke="#bcbaba" stroke-width="2px" d="M0 0L0 277" transform="translate(215)"/>
        </g>
        <g id="Group_864" transform="translate(1008.297 1102.449)">
            <g id="zingchart-react-5-graphset" transform="translate(24.691)">
                <g id="zingchart-react-5-graph-id0">
                    <g id="zingchart-react-5-graph-id0-plots-bl-1">
                        <g id="zingchart-react-5-graph-id0-plot-0-bl-1-c" transform="translate(121.857 69.57)">
                            <path id="zingchart-react-5-graph-id0-plotset-plot-0-node-0-path" fill="#3777c1" stroke="#fff" stroke-linecap="round" stroke-linejoin="round" stroke-width="0.25px" d="M5225.543 1468.211h13.911a69.551 69.551 0 0 1-4.194 23.789l-13.069-4.759a55.644 55.644 0 0 0 3.355-19.03" transform="translate(-5222.188 -1468.209)"/>
                        </g>
                        <g id="zingchart-react-5-graph-id0-plot-1-bl-1-c">
                            <path id="zingchart-react-5-graph-id0-plotset-plot-1-node-0-path" fill="#6ccec7" stroke="#fff" stroke-linecap="round" stroke-linejoin="round" stroke-width="0.25px" d="M5133.8 1436.778l13.07 4.759a69.552 69.552 0 1 1 4.194-23.788h-13.908a55.642 55.642 0 1 0-3.356 19.03" transform="translate(-5011.941 -1348.178)"/>
                        </g>
                    </g>
                </g>
            </g>
            <g id="zingchart-react-5-text" transform="translate(0 49.155)">
                <g id="zingchart-react-5-graph-id0-plotset-plot-0-node-0-value-box-1" class="cls-7" transform="translate(168.194 27.71)">
                    <text id="_5.6_" class="cls-8" transform="translate(0 7)">
                        <tspan x="0" y="0">5.6%</tspan>
                    </text>
                </g>
                <g id="zingchart-react-5-graph-id0-plotset-plot-1-node-0-value-box-1" class="cls-7" transform="translate(0 0)">
                    <text id="_94.4_" class="cls-8" transform="translate(0 7)">
                        <tspan x="0" y="0">94.4%</tspan>
                    </text>
                </g>
            </g>
        </g>
        <g id="Group_950" transform="translate(1005.677 1288.398)">
            <g id="zingchart-react-5-graph-id0-legend-item_0" class="cls-7" transform="translate(12.7)">
                <text id="Fixed_Date" class="cls-9" transform="translate(0 5)">
                    <tspan x="0" y="0">Fixed Date</tspan>
                </text>
            </g>
            <circle id="zingchart-react-5-graph-id0-legend-marker_0-circle" cx="3.475" cy="3.475" r="3.475" fill="#3777c1" transform="translate(0 0.641)"/>
            <circle id="zingchart-react-5-graph-id0-legend-marker_1-circle" cx="3.475" cy="3.475" r="3.475" fill="#6ccec7" transform="translate(58.307 0.641)"/>
            <g id="zingchart-react-5-graph-id0-legend-item_1" class="cls-7" transform="translate(71.008)">
                <text id="Standard" class="cls-9" transform="translate(0 5)">
                    <tspan x="0" y="0">Standard</tspan>
                </text>
            </g>
        </g>
    </g>
</svg>
