<svg xmlns="http://www.w3.org/2000/svg" id="Frame_2FQLSyntax" width="354" height="33" viewBox="0 0 354 33">
    <defs>
        <style>
            .cls-1{fill:#fff}
        </style>
    </defs>
    <path id="Rectangle_940" d="M0 0H354V33H0z" class="cls-1"/>
    <rect id="Rectangle_941" width="161" height="33" fill="#008675" rx="4"/>
    <rect id="Rectangle_942" width="161" height="33" fill="#dc4405" rx="4" transform="translate(193)"/>
    <path id="Path_1016" d="M55.916 23l-1.6-4.087h-5.15L47.584 23h-1.512l5.08-12.9h1.257L57.463 23zm-2.065-5.432l-1.494-3.981q-.29-.756-.6-1.854a16.657 16.657 0 0 1-.554 1.854l-1.512 3.981zM69.267 23h-1.705l-7.023-10.784h-.07q.141 1.9.141 3.48V23h-1.38V10.15h1.688l7 10.74h.07q-.018-.237-.079-1.521t-.044-1.846V10.15h1.4zm13.79-6.548a6.493 6.493 0 0 1-1.731 4.869A6.828 6.828 0 0 1 76.359 23H72.8V10.15h3.938a6.3 6.3 0 0 1 4.662 1.661 6.273 6.273 0 0 1 1.657 4.641zm-1.582.053a5.162 5.162 0 0 0-1.266-3.788 5.039 5.039 0 0 0-3.744-1.274h-2.171v10.265h1.819A5.543 5.543 0 0 0 80.13 20.4a5.218 5.218 0 0 0 1.345-3.9zm9.114-6.354L85.8 23h-1.46l4.79-12.85zm13.1 6.407a7.061 7.061 0 0 1-1.564 4.852 5.471 5.471 0 0 1-4.325 1.766 5.575 5.575 0 0 1-4.386-1.732 7.162 7.162 0 0 1-1.538-4.9 7.025 7.025 0 0 1 1.547-4.86 5.586 5.586 0 0 1 4.395-1.731 5.474 5.474 0 0 1 4.325 1.758 7.067 7.067 0 0 1 1.55 4.847zm-10.239 0a6.135 6.135 0 0 0 1.107 3.964 3.964 3.964 0 0 0 3.243 1.344 3.905 3.905 0 0 0 3.225-1.345 6.181 6.181 0 0 0 1.09-3.964 6.1 6.1 0 0 0-1.09-3.929 3.869 3.869 0 0 0-3.208-1.345 3.973 3.973 0 0 0-3.252 1.354 6.034 6.034 0 0 0-1.111 3.921zm14.608 1.1V23h-1.495V10.15h3.525a5.525 5.525 0 0 1 3.489.905 3.276 3.276 0 0 1 1.134 2.725 3.412 3.412 0 0 1-2.584 3.445L115.62 23h-1.766l-3.112-5.344zm0-1.283h2.047a3.556 3.556 0 0 0 2.321-.624 2.352 2.352 0 0 0 .738-1.89 2.139 2.139 0 0 0-.756-1.837A4.05 4.05 0 0 0 110 11.46h-1.942z" class="cls-1"/>
    <path id="Path_1017" d="M234.09 13.894a3.605 3.605 0 0 1-1.336 3.006 6.031 6.031 0 0 1-3.806 1.046h-1.511V23h-1.495V10.15h3.331q4.816 0 4.817 3.744zm-6.653 2.769h1.344a5 5 0 0 0 2.874-.642 2.364 2.364 0 0 0 .888-2.057 2.216 2.216 0 0 0-.835-1.9 4.364 4.364 0 0 0-2.6-.624h-1.669zM242.492 23l-.29-1.371h-.07a4.088 4.088 0 0 1-1.442 1.23 4.4 4.4 0 0 1-1.784.316 3.234 3.234 0 0 1-2.25-.738 2.7 2.7 0 0 1-.808-2.1q0-2.918 4.667-3.059l1.634-.053v-.6a2.41 2.41 0 0 0-.492-1.67 1.981 1.981 0 0 0-1.555-.545 6.358 6.358 0 0 0-2.725.738l-.448-1.116a6.968 6.968 0 0 1 3.26-.826 3.651 3.651 0 0 1 2.549.765 3.181 3.181 0 0 1 .835 2.452V23zm-3.3-1.028a2.947 2.947 0 0 0 2.136-.747 2.753 2.753 0 0 0 .782-2.092v-.87l-1.459.062a5.289 5.289 0 0 0-2.513.545 1.622 1.622 0 0 0-.765 1.485 1.508 1.508 0 0 0 .475 1.2 2 2 0 0 0 1.352.417zm11.786-8.78a5.715 5.715 0 0 1 1.152.106l-.2 1.354a4.974 4.974 0 0 0-1.055-.132 2.581 2.581 0 0 0-2 .949 3.471 3.471 0 0 0-.826 2.364V23h-1.459v-9.633h1.2l.167 1.784h.07a4.238 4.238 0 0 1 1.292-1.45 2.909 2.909 0 0 1 1.663-.51zm7.023 9.984a4.44 4.44 0 0 1-3.375-1.3 5.048 5.048 0 0 1-1.231-3.612 5.6 5.6 0 0 1 1.143-3.7 3.823 3.823 0 0 1 3.085-1.371 3.626 3.626 0 0 1 2.865 1.2 4.548 4.548 0 0 1 1.055 3.138v.923h-6.636a3.832 3.832 0 0 0 .853 2.575 2.977 2.977 0 0 0 2.294.879 7.759 7.759 0 0 0 3.076-.65v1.3a7.473 7.473 0 0 1-1.468.475 7.926 7.926 0 0 1-1.657.143zm-.4-8.763a2.4 2.4 0 0 0-1.854.756 3.5 3.5 0 0 0-.809 2.092h5.036a3.19 3.19 0 0 0-.615-2.109 2.159 2.159 0 0 0-1.75-.739zM270.635 23v-6.231a2.516 2.516 0 0 0-.536-1.758 2.185 2.185 0 0 0-1.679-.58 2.769 2.769 0 0 0-2.215.817 4.126 4.126 0 0 0-.7 2.7V23h-1.459v-9.633h1.186l.238 1.318h.07a2.952 2.952 0 0 1 1.257-1.1 4.046 4.046 0 0 1 1.8-.4 3.647 3.647 0 0 1 2.619.844 3.556 3.556 0 0 1 .879 2.681V23zm7.576-1.028a5.144 5.144 0 0 0 .747-.053 5.319 5.319 0 0 0 .571-.123v1.116a2.578 2.578 0 0 1-.7.185 4.893 4.893 0 0 1-.826.079q-2.795 0-2.8-2.944V14.5h-1.38v-.7l1.38-.607.615-2.057h.844v2.232h2.8V14.5h-2.8v5.67a1.952 1.952 0 0 0 .413 1.336 1.438 1.438 0 0 0 1.136.466zM288.055 23v-6.231a2.516 2.516 0 0 0-.536-1.758 2.185 2.185 0 0 0-1.679-.58 2.765 2.765 0 0 0-2.224.826 4.2 4.2 0 0 0-.694 2.707V23h-1.459V9.324h1.459v4.14a9.164 9.164 0 0 1-.07 1.239h.087a2.96 2.96 0 0 1 1.222-1.09 3.977 3.977 0 0 1 1.819-.4 3.689 3.689 0 0 1 2.646.844 3.508 3.508 0 0 1 .888 2.663V23zm8.534.176a4.44 4.44 0 0 1-3.375-1.3 5.048 5.048 0 0 1-1.231-3.612 5.6 5.6 0 0 1 1.143-3.7 3.823 3.823 0 0 1 3.085-1.371 3.626 3.626 0 0 1 2.865 1.2 4.548 4.548 0 0 1 1.055 3.138v.923h-6.636a3.831 3.831 0 0 0 .853 2.575 2.978 2.978 0 0 0 2.294.879 7.759 7.759 0 0 0 3.076-.65v1.3a7.473 7.473 0 0 1-1.468.475 7.927 7.927 0 0 1-1.661.143zm-.4-8.763a2.4 2.4 0 0 0-1.854.756 3.5 3.5 0 0 0-.809 2.092h5.036a3.19 3.19 0 0 0-.615-2.109 2.159 2.159 0 0 0-1.754-.739zm12.648 5.959a2.413 2.413 0 0 1-1 2.074 4.712 4.712 0 0 1-2.813.729 6.116 6.116 0 0 1-2.988-.607v-1.352a7.253 7.253 0 0 0 1.485.554 6.278 6.278 0 0 0 1.539.2 3.511 3.511 0 0 0 1.757-.36 1.217 1.217 0 0 0 .616-1.116 1.19 1.19 0 0 0-.493-.958 7.437 7.437 0 0 0-1.9-.949 10.738 10.738 0 0 1-1.916-.87 2.718 2.718 0 0 1-.844-.853 2.247 2.247 0 0 1-.272-1.134 2.149 2.149 0 0 1 .958-1.854 4.439 4.439 0 0 1 2.628-.686 7.692 7.692 0 0 1 3.041.633l-.519 1.187a6.983 6.983 0 0 0-2.628-.6 3.021 3.021 0 0 0-1.564.325 1 1 0 0 0-.528.9 1.109 1.109 0 0 0 .194.659 2.005 2.005 0 0 0 .641.519 14.252 14.252 0 0 0 1.688.712 6.25 6.25 0 0 1 2.311 1.257 2.205 2.205 0 0 1 .611 1.59zM312.682 23h-1.459v-9.633h1.459zM311.1 10.757a.954.954 0 0 1 .246-.729.851.851 0 0 1 .615-.237.859.859 0 0 1 .606.237.951.951 0 0 1 .255.729.981.981 0 0 1-.255.738.859.859 0 0 1-.606.237.851.851 0 0 1-.615-.237 1 1 0 0 1-.246-.738zm10.889 9.615a2.413 2.413 0 0 1-1 2.074 4.708 4.708 0 0 1-2.812.729 6.11 6.11 0 0 1-2.988-.607v-1.352a7.23 7.23 0 0 0 1.485.554 6.271 6.271 0 0 0 1.538.2 3.512 3.512 0 0 0 1.758-.36 1.216 1.216 0 0 0 .615-1.116 1.191 1.191 0 0 0-.492-.958 7.431 7.431 0 0 0-1.9-.949 10.772 10.772 0 0 1-1.916-.87 2.7 2.7 0 0 1-.843-.853 2.237 2.237 0 0 1-.273-1.134 2.149 2.149 0 0 1 .958-1.854 4.443 4.443 0 0 1 2.628-.686 7.688 7.688 0 0 1 3.041.633l-.518 1.187a6.983 6.983 0 0 0-2.628-.6 3.025 3.025 0 0 0-1.565.325 1.006 1.006 0 0 0-.527.9 1.108 1.108 0 0 0 .193.659 2.011 2.011 0 0 0 .642.519 14.212 14.212 0 0 0 1.687.712 6.256 6.256 0 0 1 2.312 1.257 2.209 2.209 0 0 1 .605 1.59z" class="cls-1"/>
</svg>
