<svg xmlns="http://www.w3.org/2000/svg" width="262" height="295" viewBox="0 0 262 295">
    <defs>
        <filter id="Rectangle_686" width="262" height="295" x="0" y="0" filterUnits="userSpaceOnUse">
            <feOffset dy="1"/>
            <feGaussianBlur result="blur" stdDeviation="3"/>
            <feFlood flood-opacity=".161"/>
            <feComposite in2="blur" operator="in"/>
            <feComposite in="SourceGraphic"/>
        </filter>
        <style>
            .cls-3{fill:#bcbaba}.cls-13,.cls-8,.cls-9{isolation:isolate}.cls-9{font-size:7px;font-family:OpenSans-Semibold,Open Sans;font-weight:600}.cls-13{font-size:5px;font-family:OpenSans,Open Sans}
        </style>
    </defs>
    <g id="WIP_DEMAND_quality" transform="translate(-570 -1047)">
        <g id="widget_all" transform="translate(579 1055)">
            <g filter="url(#Rectangle_686)" transform="matrix(1, 0, 0, 1, -9, -8)">
                <rect id="Rectangle_686-2" width="244" height="277" fill="#fff" rx="15" transform="translate(9 8)"/>
            </g>
            <text id="Demand_Analysis" fill="#707070" font-family="OpenSans-Bold, Open Sans" font-size="8px" font-weight="700" transform="translate(14 20)">
                <tspan x="0" y="0">Demand Analysis</tspan>
            </text>
            <g id="mono" transform="translate(223.186 100.546)">
                <path id="Path_957" d="M86.454 84a2.455 2.455 0 1 0 2.269 1.524A2.446 2.446 0 0 0 86.454 84zm1.439 3.7a1.9 1.9 0 0 1-3.072-2.223.557.557 0 0 0 .57.434.543.543 0 0 0 .507-.49.557.557 0 0 0-.426-.587 1.864 1.864 0 0 1 2.2.166 1.9 1.9 0 0 1 .217 2.7z" class="cls-3" transform="translate(-80.044 -80.29)"/>
                <path id="Path_958" d="M11.4 5a6.4 6.4 0 1 0 6.4 6.4A6.4 6.4 0 0 0 11.4 5zm.006 9.656a3.252 3.252 0 1 1 3.25-3.256 3.252 3.252 0 0 1-3.246 3.256z" class="cls-3" transform="translate(-5 -5)"/>
            </g>
            <g id="mono-2" transform="translate(223.186 40.987)">
                <path id="Path_955" d="M11.4 5a6.4 6.4 0 1 0 6.4 6.4A6.4 6.4 0 0 0 11.4 5zm.786 9.656h-1.567V10.1h1.571zM11.4 9.785a.817.817 0 1 1 .817-.816.817.817 0 0 1-.817.816z" class="cls-3" transform="translate(-5 -5)"/>
            </g>
            <g id="mono-3" transform="translate(223.186 10.887)">
                <path id="Path_956" d="M11.4 5a6.4 6.4 0 1 0 6.4 6.4A6.4 6.4 0 0 0 11.4 5zm-.51 3.607l.564-.755 1.127 1.509H12.1v1.287h-1.29V9.362h-.484zm-1.479 3.924L7.9 11.4l.754-.564.754-.563v.484H10.7v1.287H9.411zm2.043 2.425l-1.128-1.509h.484V12.16h1.29v1.287h.484zm2.046-2.424v-.484h-1.291v-1.287H13.5v-.484l.755.563.755.564z" class="cls-3" transform="translate(-5 -5)"/>
            </g>
            <g id="mono-4" transform="translate(223.186 70.446)">
                <path id="Path_959" d="M11.455 5A6.4 6.4 0 0 0 5 11.455a6.5 6.5 0 0 0 6.344 6.345 6.4 6.4 0 0 0 6.456-6.456A6.5 6.5 0 0 0 11.455 5zm1.57 5.508L11.9 11.882v2.405h-1v-2.405L9.773 10.5 8.147 8.512h6.5z" class="cls-3" transform="translate(-4.995 -4.995)"/>
            </g>
            <path id="Line_72" fill="none" stroke="#bcbaba" stroke-width="2px" d="M0 0L0 277" transform="translate(215)"/>
        </g>
        <g id="zingchart-react-4-graphset" transform="translate(603.627 1106.095)">
            <g id="zingchart-react-4-graph-id0">
                <g id="zingchart-react-4-graph-id0-plots-bl-1">
                    <g id="zingchart-react-4-graph-id0-plot-0-bl-1-c" transform="translate(12.813 67.074)">
                        <path id="zingchart-react-4-graph-id0-plotset-plot-0-node-0-path" fill="#e8b35e" stroke="#fff" stroke-linecap="round" stroke-linejoin="round" stroke-width="0.25px" d="M4687.778 1456.691h13.414a67.067 67.067 0 0 1-121.326 39.421l10.848-7.88a53.654 53.654 0 0 0 97.061-31.537" transform="translate(-4579.866 -1456.691)"/>
                    </g>
                    <g id="zingchart-react-4-graph-id0-plot-1-bl-1-c">
                        <path id="zingchart-react-4-graph-id0-plotset-plot-1-node-0-path" fill="#6ccec7" stroke="#fff" stroke-linecap="round" stroke-linejoin="round" stroke-width="0.25px" d="M4580.6 1435.291l-10.848 7.88a67.067 67.067 0 0 1 108.517-78.843v.005l-10.848 7.88a53.654 53.654 0 1 0-86.813 63.074h-.005" transform="translate(-4556.942 -1336.678)"/>
                    </g>
                    <g id="zingchart-react-4-graph-id0-plot-2-bl-1-c" transform="translate(110.478 27.656)">
                        <path id="zingchart-react-4-graph-id0-plotset-plot-2-node-0-path" fill="#cd5b47" stroke="#fff" stroke-linecap="round" stroke-linejoin="round" stroke-width="0.25px" d="M4754.616 1394.041l10.848-7.88a67.066 67.066 0 0 1 12.809 39.421h-13.413a53.656 53.656 0 0 0-10.248-31.537" transform="translate(-4754.614 -1386.161)"/>
                    </g>
                </g>
            </g>
        </g>
        <g id="zingchart-react-4-text" transform="translate(599.377 1103.884)">
            <g id="zingchart-react-4-graph-id0-plotset-plot-0-node-0-value-box-1" class="cls-8" transform="translate(58.849 140.663)">
                <text id="_40.0_" class="cls-9" transform="translate(0 7)">
                    <tspan x="0" y="0">40.0%</tspan>
                </text>
            </g>
            <g id="zingchart-react-4-graph-id0-plotset-plot-1-node-0-value-box-1" class="cls-8" transform="translate(0 0)">
                <text id="_50.0_" class="cls-9" transform="translate(0 7)">
                    <tspan x="0" y="0">50.0%</tspan>
                </text>
            </g>
            <g id="zingchart-react-4-graph-id0-plotset-plot-2-node-0-value-box-1" class="cls-8" transform="translate(139.176 40.666)">
                <text id="_10.0_" class="cls-9" transform="translate(0 7)">
                    <tspan x="0" y="0">10.0%</tspan>
                </text>
            </g>
        </g>
        <g id="Group_861" transform="translate(599.377 1288.113)">
            <circle id="zingchart-react-4-graph-id0-legend-marker_0-circle" cx="3.471" cy="3.471" r="3.471" fill="#e8b35e" transform="translate(0 0.64)"/>
            <circle id="zingchart-react-4-graph-id0-legend-marker_1-circle" cx="3.471" cy="3.471" r="3.471" fill="#6ccec7" transform="translate(86.342 0.64)"/>
            <circle id="zingchart-react-4-graph-id0-legend-marker_2-circle" cx="3.471" cy="3.471" r="3.471" fill="#cd5b47" transform="translate(0 14.089)"/>
            <g id="zingchart-react-4-graph-id0-legend-item_0" class="cls-8" transform="translate(12.58 0)">
                <text id="Non-value_Demand" class="cls-13" transform="translate(0 5)">
                    <tspan x="0" y="0">Non-value Demand</tspan>
                </text>
            </g>
            <g id="zingchart-react-4-graph-id0-legend-item_1" class="cls-8" transform="translate(98.921 0)">
                <text id="Value_Demand" class="cls-13" transform="translate(0 5)">
                    <tspan x="0" y="0">Value Demand</tspan>
                </text>
            </g>
            <g id="zingchart-react-4-graph-id0-legend-item_2" class="cls-8" transform="translate(12.58 13.449)">
                <text id="Failure_Demand" class="cls-13" transform="translate(0 5)">
                    <tspan x="0" y="0">Failure Demand</tspan>
                </text>
            </g>
        </g>
    </g>
</svg>
