<svg xmlns="http://www.w3.org/2000/svg" id="Frame_1FQLSyntax" width="369" height="33" viewBox="0 0 369 33">
    <defs>
        <style>
            .cls-1{fill:#fff}
        </style>
    </defs>
    <path id="Rectangle_936" d="M0 0H369V33H0z" class="cls-1"/>
    <rect id="Rectangle_937" width="82" height="33" fill="#0077c8" rx="4"/>
    <rect id="Rectangle_938" width="128" height="33" fill="#009cde" rx="4" transform="translate(114)"/>
    <rect id="Rectangle_939" width="95" height="33" fill="#41b6e6" rx="4" transform="translate(274)"/>
    <path id="Path_1013" d="M24.485 23h-1.494V10.15h7.163v1.327h-5.669v4.7h5.326v1.327h-5.326zm9.044 0H32.07v-9.633h1.459zm-1.582-12.243a.954.954 0 0 1 .246-.729.9.9 0 0 1 1.222 0 .951.951 0 0 1 .255.729.981.981 0 0 1-.255.738.9.9 0 0 1-1.222 0 1 1 0 0 1-.246-.738zm8.745 12.419a4.44 4.44 0 0 1-3.375-1.3 5.047 5.047 0 0 1-1.231-3.612 5.6 5.6 0 0 1 1.143-3.7 3.823 3.823 0 0 1 3.085-1.371 3.626 3.626 0 0 1 2.865 1.2 4.548 4.548 0 0 1 1.055 3.138v.923H37.6a3.832 3.832 0 0 0 .853 2.575 2.978 2.978 0 0 0 2.294.879 7.759 7.759 0 0 0 3.076-.65v1.3a7.465 7.465 0 0 1-1.468.475 7.925 7.925 0 0 1-1.663.143zm-.4-8.763a2.4 2.4 0 0 0-1.854.756 3.5 3.5 0 0 0-.809 2.092h5.041a3.19 3.19 0 0 0-.615-2.109 2.159 2.159 0 0 0-1.755-.739zM48.189 23H46.73V9.324h1.459zm9.65-1.292h-.079a3.428 3.428 0 0 1-3.023 1.468 3.589 3.589 0 0 1-2.944-1.292 5.7 5.7 0 0 1-1.046-3.674 5.783 5.783 0 0 1 1.055-3.7 3.549 3.549 0 0 1 2.936-1.318 3.5 3.5 0 0 1 3.006 1.424h.114l-.062-.694-.035-.677V9.324h1.459V23h-1.187zm-2.918.246a2.65 2.65 0 0 0 2.162-.809 4.108 4.108 0 0 0 .677-2.628v-.307a4.789 4.789 0 0 0-.686-2.918 2.568 2.568 0 0 0-2.171-.879 2.241 2.241 0 0 0-1.969 1 4.964 4.964 0 0 0-.677 2.813 4.756 4.756 0 0 0 .677 2.786 2.292 2.292 0 0 0 1.988.942z" class="cls-1"/>
    <path id="Path_1014" d="M152.354 16.558a7.061 7.061 0 0 1-1.565 4.852 5.47 5.47 0 0 1-4.333 1.767 5.576 5.576 0 0 1-4.386-1.732 7.164 7.164 0 0 1-1.538-4.9 7.027 7.027 0 0 1 1.547-4.86 5.586 5.586 0 0 1 4.4-1.731 5.474 5.474 0 0 1 4.324 1.758 7.067 7.067 0 0 1 1.551 4.846zm-10.24 0a6.131 6.131 0 0 0 1.108 3.964 3.963 3.963 0 0 0 3.234 1.345 3.908 3.908 0 0 0 3.226-1.345 6.187 6.187 0 0 0 1.089-3.964 6.1 6.1 0 0 0-1.089-3.929 3.871 3.871 0 0 0-3.208-1.345 3.972 3.972 0 0 0-3.252 1.354 6.03 6.03 0 0 0-1.108 3.92zm17.376 6.618a4.241 4.241 0 0 1-1.722-.343 3.268 3.268 0 0 1-1.3-1.072h-.106a12.791 12.791 0 0 1 .106 1.6v3.964h-1.459V13.367h1.186l.2 1.318h.071a3.387 3.387 0 0 1 1.309-1.142 3.983 3.983 0 0 1 1.714-.352 3.546 3.546 0 0 1 2.953 1.31 5.744 5.744 0 0 1 1.046 3.674 5.734 5.734 0 0 1-1.063 3.691 3.559 3.559 0 0 1-2.935 1.31zm-.211-8.745a2.584 2.584 0 0 0-2.135.817 4.2 4.2 0 0 0-.677 2.6v.325a4.836 4.836 0 0 0 .677 2.909 2.578 2.578 0 0 0 2.17.87 2.248 2.248 0 0 0 1.952-1.011 4.775 4.775 0 0 0 .712-2.786 4.575 4.575 0 0 0-.712-2.76 2.313 2.313 0 0 0-1.987-.964zm10.837 8.745a4.44 4.44 0 0 1-3.375-1.3 5.048 5.048 0 0 1-1.23-3.612 5.6 5.6 0 0 1 1.142-3.7 3.823 3.823 0 0 1 3.085-1.371 3.629 3.629 0 0 1 2.866 1.2 4.548 4.548 0 0 1 1.054 3.138v.923h-6.636a3.837 3.837 0 0 0 .853 2.575 2.979 2.979 0 0 0 2.294.879 7.759 7.759 0 0 0 3.076-.65v1.3a7.473 7.473 0 0 1-1.468.475 7.92 7.92 0 0 1-1.661.143zm-.4-8.763a2.4 2.4 0 0 0-1.855.756 3.5 3.5 0 0 0-.808 2.092h5.036a3.19 3.19 0 0 0-.615-2.109 2.162 2.162 0 0 0-1.753-.739zm10.828-1.222a5.705 5.705 0 0 1 1.151.106l-.2 1.354a4.966 4.966 0 0 0-1.055-.132 2.581 2.581 0 0 0-2 .949 3.476 3.476 0 0 0-.826 2.364V23h-1.459v-9.633h1.2l.167 1.784h.071a4.229 4.229 0 0 1 1.292-1.45 2.907 2.907 0 0 1 1.664-.51zM189.426 23l-.29-1.371h-.071a4.086 4.086 0 0 1-1.441 1.23 4.4 4.4 0 0 1-1.784.316 3.234 3.234 0 0 1-2.25-.738 2.7 2.7 0 0 1-.809-2.1q0-2.918 4.667-3.059l1.635-.053v-.6a2.41 2.41 0 0 0-.492-1.67 1.982 1.982 0 0 0-1.556-.545 6.351 6.351 0 0 0-2.724.738l-.449-1.116a6.976 6.976 0 0 1 3.261-.826 3.654 3.654 0 0 1 2.549.765 3.181 3.181 0 0 1 .835 2.452V23zm-3.3-1.028a2.947 2.947 0 0 0 2.136-.747 2.757 2.757 0 0 0 .782-2.092v-.87l-1.459.062a5.3 5.3 0 0 0-2.514.545 1.621 1.621 0 0 0-.764 1.485 1.511 1.511 0 0 0 .474 1.2 2.007 2.007 0 0 0 1.349.417zm10.5 0a5.144 5.144 0 0 0 .747-.053 5.32 5.32 0 0 0 .571-.123v1.116a2.579 2.579 0 0 1-.7.185 4.893 4.893 0 0 1-.826.079q-2.794 0-2.795-2.944V14.5h-1.38v-.7l1.38-.607.615-2.057h.844v2.232h2.795V14.5h-2.795v5.67a1.952 1.952 0 0 0 .413 1.336 1.437 1.437 0 0 0 1.138.466zm11.566-3.8a5.331 5.331 0 0 1-1.186 3.683 4.187 4.187 0 0 1-3.279 1.318 4.343 4.343 0 0 1-2.294-.607 4 4 0 0 1-1.546-1.74 6.055 6.055 0 0 1-.545-2.654 5.289 5.289 0 0 1 1.177-3.665 4.16 4.16 0 0 1 3.27-1.318A4.061 4.061 0 0 1 207 14.536a5.278 5.278 0 0 1 1.2 3.639zm-7.339 0a4.567 4.567 0 0 0 .739 2.813 2.929 2.929 0 0 0 4.348.015 4.549 4.549 0 0 0 .748-2.821 4.437 4.437 0 0 0-.748-2.786 2.967 2.967 0 0 0-4.35-.018 4.528 4.528 0 0 0-.73 2.8zm14.3-4.983a5.715 5.715 0 0 1 1.152.106l-.2 1.354a4.965 4.965 0 0 0-1.054-.132 2.578 2.578 0 0 0-2 .949 3.471 3.471 0 0 0-.826 2.364V23h-1.459v-9.633h1.2l.167 1.784h.07A4.228 4.228 0 0 1 213.5 13.7a2.909 2.909 0 0 1 1.66-.509z" class="cls-1"/>
    <path id="Path_1015" d="M308.376 10.15h1.608L305.353 23h-1.477l-4.605-12.85h1.582l2.953 8.314a23.245 23.245 0 0 1 .808 2.786 23.424 23.424 0 0 1 .826-2.839zM317.464 23l-.29-1.371h-.07a4.088 4.088 0 0 1-1.442 1.23 4.4 4.4 0 0 1-1.784.316 3.234 3.234 0 0 1-2.25-.738 2.7 2.7 0 0 1-.809-2.1q0-2.918 4.667-3.059l1.635-.053v-.6a2.41 2.41 0 0 0-.492-1.67 1.982 1.982 0 0 0-1.556-.545 6.354 6.354 0 0 0-2.724.738l-.449-1.116a6.89 6.89 0 0 1 1.556-.606 6.807 6.807 0 0 1 1.705-.22 3.652 3.652 0 0 1 2.549.765 3.181 3.181 0 0 1 .835 2.452V23zm-3.3-1.028a2.947 2.947 0 0 0 2.136-.747 2.757 2.757 0 0 0 .782-2.092v-.87l-1.459.062a5.3 5.3 0 0 0-2.514.545 1.623 1.623 0 0 0-.764 1.485 1.511 1.511 0 0 0 .474 1.2 2.008 2.008 0 0 0 1.349.417zM323.019 23h-1.459V9.324h1.459zm4.464-9.633v6.249a2.511 2.511 0 0 0 .537 1.758 2.183 2.183 0 0 0 1.678.58 2.725 2.725 0 0 0 2.206-.826 4.147 4.147 0 0 0 .7-2.7v-5.061h1.459V23h-1.2l-.211-1.292h-.079a2.905 2.905 0 0 1-1.248 1.09 4.15 4.15 0 0 1-1.81.378 3.7 3.7 0 0 1-2.637-.835 3.566 3.566 0 0 1-.87-2.672v-6.3zm13.755 9.809a4.44 4.44 0 0 1-3.375-1.3 5.048 5.048 0 0 1-1.23-3.612 5.6 5.6 0 0 1 1.142-3.7 3.823 3.823 0 0 1 3.085-1.371 3.629 3.629 0 0 1 2.866 1.2 4.548 4.548 0 0 1 1.054 3.138v.923h-6.635a3.831 3.831 0 0 0 .855 2.568 2.979 2.979 0 0 0 2.294.879 7.756 7.756 0 0 0 3.076-.65v1.3a7.452 7.452 0 0 1-1.468.475 7.92 7.92 0 0 1-1.664.15zm-.4-8.763a2.4 2.4 0 0 0-1.855.756 3.5 3.5 0 0 0-.808 2.092h5.036a3.19 3.19 0 0 0-.615-2.109 2.162 2.162 0 0 0-1.753-.739z" class="cls-1"/>
</svg>
