<svg width="12" height="12" viewBox="0 0 12 12" fill="none" xmlns="http://www.w3.org/2000/svg">
<g id="arrow_green">
<path id="arrow_green_2" d="M10.2107 5.10661C10.3769 5.18965 10.5166 5.31731 10.6143 5.47531C10.7119 5.6333 10.7637 5.81537 10.7637 6.00111C10.7637 6.18685 10.7119 6.36892 10.6143 6.52691C10.5166 6.6849 10.3769 6.81257 10.2107 6.89561L1.44674 11.2776C1.29424 11.3538 1.1248 11.3898 0.954496 11.382C0.784195 11.3743 0.618693 11.3232 0.473709 11.2335C0.328725 11.1439 0.209073 11.0186 0.126119 10.8697C0.0431639 10.7207 -0.000339811 10.5531 -0.000260353 10.3826V1.61861C-0.000169384 1.44822 0.0434587 1.28067 0.126484 1.13188C0.209509 0.983084 0.329178 0.857971 0.474134 0.768412C0.619091 0.678854 0.784528 0.62782 0.954746 0.620154C1.12496 0.612487 1.29432 0.648442 1.44674 0.724607L10.2107 5.10661Z" fill="#1ECECA"/>
</g>
</svg>
