<svg width="38" height="38" viewBox="0 0 38 38" fill="none" xmlns="http://www.w3.org/2000/svg">
<g id="Booking_Icon">
<g id="Group 1586">
<path id="Exclude" fill-rule="evenodd" clip-rule="evenodd" d="M19 38C29.4934 38 38 29.4934 38 19C38 8.50659 29.4934 0 19 0C8.50659 0 0 8.50659 0 19C0 29.4934 8.50659 38 19 38ZM28.7153 20.2019C28.9827 18.1194 28.5891 16.0055 27.5902 14.1587C26.5913 12.312 25.0374 10.8257 23.1481 9.90984C21.2588 8.99394 19.1295 8.6947 17.061 9.05436C14.9924 9.41403 13.0891 10.4144 11.6198 11.9143C10.1506 13.4142 9.18961 15.3377 8.87265 17.4132C8.55569 19.4888 8.89875 21.6114 9.85339 23.4814C10.808 25.3515 12.326 26.8743 14.1929 27.835C16.0599 28.7957 18.1814 29.1456 20.258 28.8353L20.0183 27.2316C18.2779 27.4916 16.4997 27.1983 14.9349 26.3931C13.3701 25.5879 12.0978 24.3115 11.2976 22.7441C10.4975 21.1768 10.21 19.3976 10.4756 17.658C10.7413 15.9184 11.5467 14.3062 12.7782 13.049C14.0097 11.7919 15.605 10.9534 17.3388 10.652C19.0725 10.3505 20.8572 10.6013 22.4408 11.369C24.0243 12.1367 25.3267 13.3824 26.1639 14.9302C27.0012 16.4781 27.3311 18.2499 27.1069 19.9953L28.7153 20.2019ZM19.7122 13.5304C20.0401 13.5304 20.3059 13.7963 20.3059 14.1242V19.1025C20.3059 19.4305 20.0401 19.6963 19.7122 19.6963C19.674 19.6963 19.6366 19.6927 19.6004 19.6858C19.5641 19.6927 19.5265 19.6964 19.4882 19.6964H16.0513C15.7233 19.6964 15.4575 19.4306 15.4575 19.1026C15.4575 18.7747 15.7233 18.5089 16.0513 18.5089H19.1184V14.1242C19.1184 13.7963 19.3843 13.5304 19.7122 13.5304ZM23.1448 27.4042C23.1448 27.688 22.9148 27.918 22.631 27.918C22.3472 27.918 22.1172 27.688 22.1172 27.4042C22.1172 27.1204 22.3472 26.8904 22.631 26.8904C22.9148 26.8904 23.1448 27.1204 23.1448 27.4042ZM24.172 27.9182C24.4558 27.9182 24.6859 27.6881 24.6859 27.4044C24.6859 27.1206 24.4558 26.8905 24.172 26.8905C23.8883 26.8905 23.6582 27.1206 23.6582 27.4044C23.6582 27.6881 23.8883 27.9182 24.172 27.9182ZM26.2277 27.4044C26.2277 27.6881 25.9977 27.9182 25.7139 27.9182C25.4301 27.9182 25.2001 27.6881 25.2001 27.4044C25.2001 27.1206 25.4301 26.8905 25.7139 26.8905C25.9977 26.8905 26.2277 27.1206 26.2277 27.4044ZM27.255 27.9182C27.5388 27.9182 27.7688 27.6881 27.7688 27.4044C27.7688 27.1206 27.5388 26.8905 27.255 26.8905C26.9712 26.8905 26.7412 27.1206 26.7412 27.4044C26.7412 27.6881 26.9712 27.9182 27.255 27.9182ZM23.1447 25.8613C23.1447 26.1451 22.9146 26.3751 22.6309 26.3751C22.3471 26.3751 22.1171 26.1451 22.1171 25.8613C22.1171 25.5775 22.3471 25.3475 22.6309 25.3475C22.9146 25.3475 23.1447 25.5775 23.1447 25.8613ZM24.172 26.3751C24.4557 26.3751 24.6858 26.1451 24.6858 25.8613C24.6858 25.5775 24.4557 25.3475 24.172 25.3475C23.8882 25.3475 23.6581 25.5775 23.6581 25.8613C23.6581 26.1451 23.8882 26.3751 24.172 26.3751ZM26.2276 25.8613C26.2276 26.1451 25.9976 26.3751 25.7138 26.3751C25.43 26.3751 25.2 26.1451 25.2 25.8613C25.2 25.5775 25.43 25.3475 25.7138 25.3475C25.9976 25.3475 26.2276 25.5775 26.2276 25.8613ZM27.2549 26.3751C27.5387 26.3751 27.7687 26.1451 27.7687 25.8613C27.7687 25.5775 27.5387 25.3475 27.2549 25.3475C26.9711 25.3475 26.7411 25.5775 26.7411 25.8613C26.7411 26.1451 26.9711 26.3751 27.2549 26.3751ZM27.7687 24.3183C27.7687 24.6021 27.5387 24.8322 27.2549 24.8322C26.9711 24.8322 26.7411 24.6021 26.7411 24.3183C26.7411 24.0346 26.9711 23.8045 27.2549 23.8045C27.5387 23.8045 27.7687 24.0346 27.7687 24.3183ZM24.1882 20.6601C24.1882 20.4961 24.0553 20.3632 23.8913 20.3632C23.7274 20.3632 23.5945 20.4961 23.5945 20.6601V21.8005C23.5945 21.9644 23.7274 22.0973 23.8913 22.0973C24.0553 22.0973 24.1882 21.9644 24.1882 21.8005V20.6601ZM24.9375 20.3632C25.1015 20.3632 25.2344 20.4961 25.2344 20.6601V21.8005C25.2344 21.9644 25.1015 22.0973 24.9375 22.0973C24.7736 22.0973 24.6406 21.9644 24.6406 21.8005V20.6601C24.6406 20.4961 24.7736 20.3632 24.9375 20.3632ZM26.2734 20.6601C26.2734 20.4961 26.1405 20.3632 25.9766 20.3632C25.8126 20.3632 25.6797 20.4961 25.6797 20.6601V21.8005C25.6797 21.9644 25.8126 22.0973 25.9766 22.0973C26.1405 22.0973 26.2734 21.9644 26.2734 21.8005V20.6601ZM23.1445 20.9297V21.7506H21.9003C21.7364 21.7506 21.6034 21.8835 21.6034 22.0474V28.1333C21.6034 28.2973 21.7364 28.4302 21.9003 28.4302H27.9862C28.1502 28.4302 28.2831 28.2973 28.2831 28.1333V22.0474C28.2831 21.8835 28.1502 21.7506 27.9862 21.7506H26.7413V20.9297H28.5C28.8279 20.9297 29.0938 21.1955 29.0938 21.5234V28.6484C29.0938 28.9764 28.8279 29.2422 28.5 29.2422H21.375C21.0471 29.2422 20.7813 28.9764 20.7813 28.6484V21.5234C20.7813 21.1955 21.0471 20.9297 21.375 20.9297H23.1445Z" fill="#10CFC9"/>
</g>
</g>
</svg>
