<svg xmlns="http://www.w3.org/2000/svg" width="256.003" height="256.003" viewBox="0 0 256.003 256.003">
    <path fill="#fff" d="M106.49 7.66a126.36 126.36 0 0 0-98.83 98.83c-17.22 85.86 51.53 160.74 135.73 154.1 62-4.89 112.31-55.16 117.2-117.2 6.64-84.2-68.24-152.95-154.1-135.73zM198 146.93h-20.95a44.24 44.24 0 0 1-3.05 7.38l14.81 14.8-19.7 19.7L154.3 174a46 46 0 0 1-7.37 3.07V198h-27.86v-20.95a45.1 45.1 0 0 1-7.38-3.05l-14.8 14.81-19.7-19.7L92 154.3a45.071 45.071 0 0 1-3.07-7.37H68v-27.86h20.93A45.071 45.071 0 0 1 92 111.7L77.19 96.89l19.68-19.7L111.69 92a45.511 45.511 0 0 1 7.38-3.06V68h27.86v20.94A45 45 0 0 1 154.3 92l14.81-14.81 19.69 19.69L174 111.7a44.141 44.141 0 0 1 3.05 7.37H198z" transform="translate(-4.997 -4.998)"/>
</svg>
