<svg width="38" height="38" viewBox="0 0 38 38" fill="none" xmlns="http://www.w3.org/2000/svg">
<path fill-rule="evenodd" clip-rule="evenodd" d="M19 38C29.4934 38 38 29.4934 38 19C38 8.50659 29.4934 0 19 0C8.50659 0 0 8.50659 0 19C0 29.4934 8.50659 38 19 38ZM14.5 12V16.563C13.6374 16.785 13 17.5681 13 18.5V25.5C13 27.7091 14.7909 29.5 17 29.5H22C24.2091 29.5 26 27.7091 26 25.5V18.5C26 17.3954 25.1046 16.5 24 16.5H23.5C24.0523 16.5 24.5 16.0523 24.5 15.5V12C24.5 9.79086 22.7091 8 20.5 8H18.5C16.2909 8 14.5 9.79086 14.5 12ZM23.5 16.5H16.5V12C16.5 10.8954 17.3954 10 18.5 10H20.5C21.6046 10 22.5 10.8954 22.5 12V15.5C22.5 16.0523 22.9477 16.5 23.5 16.5ZM21 24C21 24.6531 20.5826 25.2087 20 25.4146V27.5H19V25.4146C18.4174 25.2087 18 24.6531 18 24C18 23.1716 18.6716 22.5 19.5 22.5C20.3284 22.5 21 23.1716 21 24Z" fill="#10CFC9"/>
</svg>
