<svg id="Plugnplay" xmlns="http://www.w3.org/2000/svg" width="38" height="38" viewBox="0 0 38 38">
  <defs>
    <style>
      .cls-1 {
        fill: #fff;
      }
    </style>
  </defs>
  <path id="Path_796" data-name="Path 796" class="cls-1" d="M5,24c.423,25.331,37.574,25.335,38,0C42.577-1.33,5.426-1.334,5,24ZM23.035,34.767V26.772c-2.617-.257-2.038-3.459-2.078-5.307h1.376V19.9h.717v1.563h.594V20.439h.718v1.026h.594V19.9h.717v1.563h1.376c-.04,1.845.539,5.047-2.078,5.307v5.986c10.643-1.168,9.815-17.572-.965-17.563-7.719-.239-11.684,10.21-5.86,15.308l-1.3,1.444c-7.116-6.234-2.277-19,7.164-18.7C38.572,13.636,37.594,35.6,23.035,34.767Z" transform="translate(-5 -5.001)"/>
</svg>
