<svg width="38" height="38" viewBox="0 0 38 38" fill="none" xmlns="http://www.w3.org/2000/svg">
<g id="Screenshare_Icon">
<path id="Union" fill-rule="evenodd" clip-rule="evenodd" d="M19 38C29.4934 38 38 29.4934 38 19C38 8.50659 29.4934 0 19 0C8.50659 0 0 8.50659 0 19C0 29.4934 8.50659 38 19 38ZM7.66987 11.6238C7.66987 10.9679 8.20154 10.4363 8.85737 10.4363H29.2912C29.947 10.4363 30.4787 10.9679 30.4787 11.6238V25.417C30.4787 25.8401 30.2574 26.2115 29.9243 26.4219H32.2109V27.6094H5.9375V26.4219H8.22425C7.89113 26.2115 7.66987 25.8401 7.66987 25.417V11.6238ZM19.2227 15.7344L21.9688 19.142H20.2316L19.9433 22.2656L18.2138 19.142H16.4766L19.2227 15.7344ZM10 11.5C9.17157 11.5 8.5 12.1716 8.5 13V23C8.5 23.8284 9.17157 24.5 10 24.5H28C28.8284 24.5 29.5 23.8284 29.5 23V13C29.5 12.1716 28.8284 11.5 28 11.5H10ZM9.5 13C9.5 12.7239 9.72386 12.5 10 12.5H28C28.2761 12.5 28.5 12.7239 28.5 13V23C28.5 23.2761 28.2761 23.5 28 23.5H10C9.72386 23.5 9.5 23.2761 9.5 23V13Z" fill="#10CFC9"/>
</g>
</svg>
