<svg xmlns="http://www.w3.org/2000/svg" viewBox="0 0 266 266"><defs><style>.cls-1{fill:none;}.cls-2{fill:#10cfc9;}</style></defs><g id="transparent"><circle class="cls-1" cx="133" cy="133" r="128"/><path class="cls-2" d="M198,173.75H187.49a16,16,0,0,1-29.66,0H68v-12h89.83a16,16,0,0,1,29.66,0H198Z"/><path class="cls-2" d="M198,139H147.83a16,16,0,0,1-29.66,0H68V127h50.17a16,16,0,0,1,29.66,0H198Z"/><path class="cls-2" d="M198,104.25H108.17a16,16,0,0,1-29.66,0H68v-12H78.51a16,16,0,0,1,29.66,0H198Z"/></g></svg>