<svg xmlns="http://www.w3.org/2000/svg" viewBox="0 0 266 266"><defs><style>.cls-1{fill:none;}.cls-2{fill:#10cfc9;}</style></defs><g id="mono"><circle class="cls-1" cx="133.49" cy="133" r="128"/><path class="cls-2" d="M68.49,74.63V191.37h97.75l32.25-32V74.63ZM93.32,92.25a5.69,5.69,0,1,1-6.57-6.56A5.7,5.7,0,0,1,93.32,92.25Zm33.38,69.09q-5.6,4.29-16,4.29a38.79,38.79,0,0,1-15.44-2.89v-9.62a34.77,34.77,0,0,0,6.84,2.56,28.79,28.79,0,0,0,7.39,1c3.74,0,6.49-.63,8.28-1.9s2.67-3.31,2.67-6.11a5.53,5.53,0,0,0-3.08-5.35q-3.08-1.58-9.8-1.57H103.5v-8.67h4.14c4.15,0,7.18-.55,9.09-1.63s2.87-2.95,2.87-5.58q0-6.08-7.61-6.08a17.63,17.63,0,0,0-5.36.88,26.28,26.28,0,0,0-6,3l-5.24-7.8a29.11,29.11,0,0,1,17.46-5.27q8.31,0,13.12,3.37a10.83,10.83,0,0,1,4.81,9.37,12.59,12.59,0,0,1-3,8.53,15.76,15.76,0,0,1-8.52,4.83V137q6.47.8,9.8,3.93a11,11,0,0,1,3.33,8.43Q132.3,157,126.7,161.34Zm39.45,3.56H154.84c0-7.9-.14-34.18.3-41.6a102.94,102.94,0,0,1-10.07,8.63l-5.45-6.8,17.24-13.73h9.29Zm18.71-72.65a5.68,5.68,0,1,1-6.56-6.56A5.69,5.69,0,0,1,184.86,92.25Z"/></g></svg>