<svg xmlns="http://www.w3.org/2000/svg" viewBox="0 0 266 266"><defs><style>.cls-1{fill:none;}.cls-2{fill:#10cfc9;}</style></defs><g id="mono"><path class="cls-1" d="M106.49,7.45A126.37,126.37,0,0,0,7.66,106.28C-9.56,192.14,59.19,267,143.39,260.38c62-4.89,112.31-55.16,117.2-117.2C267.23,59,192.35-9.77,106.49,7.45Z"/><path class="cls-2" d="M143,122.85V103.56H128.5a31.64,31.64,0,0,0-2.11-5.1L136.63,88.2,123,74.57,112.75,84.82a30.76,30.76,0,0,0-5.1-2.11V68.21H88.35v14.5a32.13,32.13,0,0,0-5.11,2.11L73,74.57,59.36,88.21,69.61,98.46a31.68,31.68,0,0,0-2.12,5.1H53v19.29H67.49A31.42,31.42,0,0,0,69.61,128L59.36,138.21,73,151.85,83.24,141.6a32.69,32.69,0,0,0,5.11,2.11v14.5h19.3V143.72a32.62,32.62,0,0,0,5.1-2.12L123,151.85l13.64-13.64L126.39,128a31,31,0,0,0,2.11-5.11Zm-45,9.4a19,19,0,1,1,19-19A19,19,0,0,1,98,132.25Z"/><path class="cls-2" d="M213,169.88v-15H201.72a24.21,24.21,0,0,0-1.64-4l8-8-10.6-10.61-8,8a24.25,24.25,0,0,0-4-1.65V127.37h-15v11.28a24.72,24.72,0,0,0-4,1.65l-8-8L148,142.93l8,8a24.25,24.25,0,0,0-1.65,4H143v15h11.27a24.25,24.25,0,0,0,1.65,4l-8,8,10.6,10.61,8-8a25.26,25.26,0,0,0,4,1.65v11.27h15V186.1a24.25,24.25,0,0,0,4-1.65l8,8,10.6-10.61-8-8a24.21,24.21,0,0,0,1.64-4Zm-35,7.3a14.81,14.81,0,1,1,14.81-14.81A14.81,14.81,0,0,1,178,177.18Z"/></g></svg>