<svg xmlns="http://www.w3.org/2000/svg" viewBox="0 0 266 266"><defs><style>.cls-1{fill:#10cfc9;}.cls-2{fill:#fff;}</style></defs><g id="mono"><path class="cls-1" d="M122.61,5.41C60.57,10.3,10.3,60.57,5.41,122.61a128,128,0,0,0,138,138c62-4.89,112.31-55.16,117.2-117.2A128,128,0,0,0,122.61,5.41ZM124.88,198H68V141.12h56.88Zm0-73.12H68V68h56.88ZM198,198H141.13V141.12H198Zm0-73.12H141.13V68H198Z"/><rect class="cls-2" x="68" y="141.13" width="56.88" height="56.88"/><rect class="cls-2" x="68" y="68" width="56.88" height="56.88"/><rect class="cls-2" x="141.13" y="141.13" width="56.88" height="56.88"/><rect class="cls-2" x="141.13" y="68" width="56.88" height="56.88"/></g></svg>