<svg xmlns="http://www.w3.org/2000/svg" viewBox="0 0 266 266"><defs><style>.cls-1{fill:#10cfc9;}.cls-2{fill:#fff;}</style></defs><g id="mono"><circle class="cls-1" cx="133" cy="133" r="128"/><polygon class="cls-2" points="188.47 198 117.61 198 89.53 198 89.53 169.93 89.53 68 117.61 68 117.61 85.3 104.09 85.3 104.09 89.45 117.61 89.45 117.61 92.64 108.25 92.64 108.25 96.8 117.61 96.8 117.61 112.59 104.09 112.59 104.09 116.75 117.61 116.75 117.61 119.94 108.25 119.94 108.25 124.09 117.61 124.09 117.61 127.28 104.09 127.28 104.09 131.44 117.61 131.44 117.61 147.23 108.25 147.23 108.25 151.39 117.61 151.39 117.61 154.57 104.09 154.57 104.09 158.74 117.61 158.74 117.61 169.93 126.06 169.93 126.06 183.44 130.22 183.44 130.22 169.93 133.41 169.93 133.41 179.28 137.57 179.28 137.57 169.93 140.75 169.93 140.75 183.44 144.91 183.44 144.91 169.93 160.71 169.93 160.71 179.28 164.87 179.28 164.87 169.93 168.05 169.93 168.05 183.44 172.21 183.44 172.21 169.93 188.47 169.93 188.47 198"/></g></svg>