<svg xmlns="http://www.w3.org/2000/svg" viewBox="0 0 266 266"><defs><style>.cls-1{fill:#10cfc9;}.cls-2{fill:#fff;}</style></defs><g id="mono"><circle class="cls-1" cx="133" cy="133" r="128"/><polygon class="cls-2" points="147.41 189.8 133.16 198 133.02 197.92 126.01 193.94 118.73 189.79 76.28 165.63 76.17 116.8 76.13 100.64 83.24 96.53 132.84 68 182.57 96.3 189.7 100.36 189.76 116.69 189.88 165.37 147.41 189.8"/><polygon class="cls-1" points="168.34 104.5 132.98 124.84 97.52 104.67 132.89 84.33 168.34 104.5"/><polygon class="cls-1" points="125.73 137.02 125.84 177.54 90.52 157.43 90.42 116.92 125.73 137.02"/><polygon class="cls-1" points="175.48 116.72 175.61 157.25 140.23 177.58 140.13 137.06 175.48 116.72"/></g></svg>