<svg xmlns="http://www.w3.org/2000/svg" viewBox="0 0 266 266">
  <defs>
    <style>
      .cls-1 {
        fill: #10cfc9;
      }

      .cls-2 {
        fill: #fff;
      }
    </style>
  </defs>
  <g id="mono">
    <g>
      <circle class="cls-1" cx="133" cy="133" r="128"/>
      <g>
        <circle class="cls-2" cx="128.94" cy="183" r="15"/>
        <path class="cls-2" d="M168.38,115.61q-4.31,6.89-16.35,15.5-8.26,6.1-10.46,9.29a14.41,14.41,0,0,0-2.2,8.35v5.17H116.56v-6.37a28.2,28.2,0,0,1,3.53-14.38q3.52-6.1,12.91-13,9-6.45,11.92-10.5a15.17,15.17,0,0,0,2.89-9,9.79,9.79,0,0,0-4.13-8.52q-4.14-2.92-11.54-2.93-12.91,0-29.44,8.44L93.31,78.76A82.06,82.06,0,0,1,134,68q17.75,0,28.2,8.52t10.46,22.73A30.22,30.22,0,0,1,168.38,115.61Z"/>
      </g>
    </g>
  </g>
</svg>
