<svg xmlns="http://www.w3.org/2000/svg" viewBox="0 0 266 266"><defs><style>.cls-1{fill:#10cfc9;}.cls-2{fill:#fff;}</style></defs><g id="mono"><circle class="cls-1" cx="133" cy="133" r="128"/><path class="cls-2" d="M171.26,105.49a18,18,0,1,1-20.5,20.62A18,18,0,0,1,171.26,105.49Z"/><path class="cls-2" d="M111.37,76.19A24.24,24.24,0,1,1,83.76,104,24.22,24.22,0,0,1,111.37,76.19Z"/><path class="cls-2" d="M134.51,149.81v40.25H68V140.8a8.58,8.58,0,0,1,8.59-8.59h67.77a3,3,0,0,1,3,3v5.59a2.14,2.14,0,0,1-2.14,2.14h-3.84A6.86,6.86,0,0,0,134.51,149.81Z"/><path class="cls-2" d="M198,190.06H139.05V153.47a6.38,6.38,0,0,1,6.38-6.38h46.19a6.38,6.38,0,0,1,6.38,6.38Z"/></g></svg>