<svg width="20" height="21" viewBox="0 0 20 21" fill="none" xmlns="http://www.w3.org/2000/svg">
<g clip-path="url(#clip0_1047_23018)">
<path fill-rule="evenodd" clip-rule="evenodd" d="M4.87185 20.2725L3.42183 20.891C3.10707 21.0252 2.74408 20.8712 2.6132 20.5481C1.79477 18.5288 0.976184 16.5099 0.157753 14.4903C0.0253783 14.1639 0.17378 13.7943 0.491655 13.6586L1.94168 13.04C2.25644 12.9057 2.61943 13.0595 2.75031 13.3829C3.56874 15.402 4.38732 17.4212 5.20576 19.4407C5.33828 19.7675 5.18988 20.1367 4.87185 20.2725ZM11.8188 9.43202H14.7842C15.0281 9.43202 15.2279 9.63709 15.2279 9.88792V10.8715C15.2279 11.1222 15.0283 11.3274 14.7842 11.3274H14.3281V11.7843C14.3281 12.021 14.1398 12.2142 13.9098 12.2142H12.6933C12.463 12.2142 12.275 12.0207 12.275 11.7843V11.3274H11.8189C11.575 11.3274 11.3752 11.1223 11.3752 10.8715V9.88792C11.3752 9.63726 11.5748 9.43202 11.8188 9.43202H11.8188ZM13.3015 2.82347C14.7834 2.82347 15.9847 4.05771 15.9847 5.58028C15.9847 7.06686 15.1214 7.03224 14.8268 8.8317C14.8125 8.83109 14.7984 8.83079 14.784 8.83079H13.5941V6.26547L14.5973 5.67054C14.737 5.58806 14.7851 5.40509 14.7048 5.2616C14.6245 5.11813 14.4464 5.06873 14.3067 5.15122L13.3019 5.74735L12.2971 5.15122C12.1575 5.06812 11.9789 5.11706 11.8981 5.26054C11.8172 5.40401 11.8648 5.58743 12.0045 5.67053L13.0089 6.26624V8.83062H11.819C11.8046 8.83062 11.7904 8.83108 11.7763 8.83154C11.4815 7.03207 10.6183 7.06669 10.6183 5.58011C10.6182 4.0577 11.8196 2.82346 13.3015 2.82346L13.3015 2.82347ZM13.5941 1.20211C13.5941 1.3683 13.4631 1.50293 13.3013 1.50293C13.1396 1.50293 13.0085 1.3683 13.0085 1.20211L13.0087 0.315958C13.0087 0.149767 13.1397 0.0151367 13.3015 0.0151367C13.4632 0.0151367 13.5943 0.149767 13.5943 0.315958L13.5941 1.20211ZM17.6147 3.93347C17.475 4.01656 17.2965 3.96762 17.2156 3.82415C17.1347 3.68067 17.1824 3.49725 17.322 3.41415L18.0691 2.97106C18.2087 2.88796 18.3872 2.9369 18.4681 3.08038C18.549 3.22385 18.5014 3.40727 18.3617 3.49037L17.6147 3.93347ZM15.96 2.01355C15.8797 2.15702 15.7016 2.20642 15.562 2.12394C15.4223 2.04145 15.3742 1.85849 15.4545 1.715L15.8858 0.947465C15.9661 0.80399 16.1441 0.754591 16.2838 0.837078C16.4235 0.919565 16.4715 1.10253 16.3912 1.24602L15.96 2.01355ZM9.28123 3.41414C9.42088 3.49724 9.46852 3.68081 9.38764 3.82414C9.30676 3.96761 9.12809 4.01656 8.98858 3.93346L8.24154 3.49037C8.10189 3.40727 8.05426 3.2237 8.13513 3.08037C8.21601 2.9369 8.39469 2.88795 8.53419 2.97105L9.28123 3.41414ZM11.1487 1.71534C11.229 1.85882 11.1809 2.04178 11.0413 2.12428C10.9016 2.20677 10.7235 2.15737 10.6432 2.0139L10.212 1.24637C10.1317 1.10289 10.1798 0.919928 10.3194 0.837425C10.459 0.754939 10.6371 0.804339 10.7174 0.947813L11.1487 1.71534ZM13.6838 15.5113C13.4597 16.3702 12.5904 16.8866 11.7543 16.6565L8.11937 15.6558C7.9634 15.613 7.87065 15.4485 7.91235 15.2881C7.95405 15.1278 8.11417 15.0325 8.27029 15.0754L11.904 16.0756C12.4372 16.2142 12.9695 15.8987 13.1187 15.3559C13.2545 14.8044 12.9399 14.2525 12.4182 14.1089L9.6835 13.356C9.64344 13.345 9.60752 13.3259 9.57695 13.3009C8.7094 12.6711 8.06534 12.4428 7.47516 12.4582C6.87829 12.4739 6.29909 12.742 5.589 13.0987C4.94674 13.4214 4.30253 13.7388 3.65639 14.0527L5.35039 18.2319L6.00215 17.9064C6.48015 17.6675 6.9703 17.6254 7.48082 17.7776L10.4969 18.6774C11.2933 18.915 12.3321 18.4997 13.1561 18.1702C15.1017 17.3926 17.0528 16.6269 19.0006 15.8557C19.456 15.6753 19.7845 15.21 19.8699 14.7393C19.9309 14.4048 19.8677 14.0617 19.5924 13.8461C19.248 13.5761 18.5934 13.4959 17.5194 13.8194L13.7313 14.9613C13.7463 15.1416 13.7318 15.327 13.6837 15.5112L13.6838 15.5113Z" fill="#FF9E1B"/>
</g>
<defs>
<clipPath id="clip0_1047_23018">
<rect width="20" height="21" fill="white"/>
</clipPath>
</defs>
</svg>
