<svg width="70" height="88" viewBox="0 0 70 88" fill="none" xmlns="http://www.w3.org/2000/svg">
<g clip-path="url(#clip0_1599_38584)">
<path fill-rule="evenodd" clip-rule="evenodd" d="M9.83003 62.1806L2.14103 75.4976C1.95703 75.8166 1.97603 76.1906 2.19003 76.4896C2.40503 76.7886 2.75303 76.9256 3.11403 76.8526L14.275 74.5996C14.73 74.5076 15.176 74.7656 15.323 75.2046L18.952 85.9966C19.069 86.3456 19.362 86.5786 19.728 86.6156C20.094 86.6526 20.427 86.4816 20.611 86.1626L29.021 71.5966C21.671 70.4006 15.048 67.0366 9.83003 62.1806ZM60.17 62.1806L68.236 76.1516C68.42 76.4706 68.401 76.8446 68.187 77.1436C67.972 77.4426 67.624 77.5796 67.263 77.5066L56.102 75.2536C55.647 75.1616 55.202 75.4196 55.054 75.8586L51.425 86.6506C51.308 86.9996 51.015 87.2326 50.649 87.2696C50.283 87.3066 49.95 87.1356 49.766 86.8166L40.979 71.5966C48.329 70.4006 54.952 67.0366 60.17 62.1806ZM35 0.724609C53.997 0.724609 69.397 16.1246 69.397 35.1216C69.397 54.1186 53.997 69.5186 35 69.5186C16.003 69.5186 0.603027 54.1186 0.603027 35.1216C0.603027 16.1246 16.003 0.724609 35 0.724609ZM35 8.61961C27.682 8.61961 21.057 11.5856 16.261 16.3816C11.465 21.1776 8.49903 27.8026 8.49903 35.1206C8.49903 42.4386 11.465 49.0636 16.261 53.8596C21.057 58.6556 27.682 61.6216 35 61.6216C42.318 61.6216 48.943 58.6556 53.739 53.8596C58.535 49.0636 61.501 42.4386 61.501 35.1206C61.501 27.8026 58.535 21.1776 53.739 16.3816C48.943 11.5866 42.318 8.61961 35 8.61961ZM51.928 18.1936C47.596 13.8616 41.611 11.1826 35 11.1826C28.389 11.1826 22.404 13.8626 18.072 18.1946C13.74 22.5266 11.06 28.5116 11.06 35.1226C11.06 41.7336 13.74 47.7186 18.072 52.0506C22.404 56.3826 28.389 59.0626 35 59.0626C41.611 59.0626 47.596 56.3836 51.928 52.0506C56.26 47.7186 58.94 41.7336 58.94 35.1226C58.94 28.5116 56.26 22.5256 51.928 18.1936ZM35.851 22.0536C35.71 21.6966 35.383 21.4736 35 21.4736C34.616 21.4736 34.289 21.6966 34.149 22.0536L30.914 30.2686C30.781 30.6076 30.482 30.8246 30.118 30.8466L21.306 31.3846C20.923 31.4076 20.61 31.6506 20.492 32.0156C20.373 32.3806 20.484 32.7606 20.78 33.0046L27.593 38.6196C27.874 38.8516 27.988 39.2026 27.897 39.5546L25.686 48.1016C25.59 48.4726 25.724 48.8456 26.034 49.0706C26.344 49.2956 26.74 49.3086 27.064 49.1016L34.51 44.3566C34.817 44.1606 35.186 44.1606 35.493 44.3566L42.939 49.1016C43.263 49.3076 43.658 49.2956 43.969 49.0706C44.279 48.8456 44.413 48.4726 44.317 48.1016L42.106 39.5546C42.015 39.2026 42.129 38.8506 42.41 38.6196L49.223 33.0046C49.519 32.7606 49.63 32.3806 49.511 32.0156C49.392 31.6506 49.079 31.4086 48.697 31.3846L39.885 30.8466C39.522 30.8246 39.223 30.6076 39.089 30.2686L35.851 22.0536Z" fill="#FF58E4"/>
</g>
<defs>
<clipPath id="clip0_1599_38584">
<rect width="70" height="88" fill="white"/>
</clipPath>
</defs>
</svg>
