<svg width="19" height="19" viewBox="0 0 19 19" fill="none" xmlns="http://www.w3.org/2000/svg">
<g clip-path="url(#clip0_1047_23052)">
<path d="M15.2266 0.623684C14.8717 0.268903 14.3904 0.0695801 13.8884 0.0695801C13.3865 0.0695801 12.9052 0.268899 12.5503 0.623684L0.597235 12.5767C0.242295 12.9317 0.0429688 13.4131 0.0429688 13.9151C0.0429688 14.4171 0.242287 14.8985 0.597235 15.2535L3.77255 18.4284C4.12749 18.7832 4.60877 18.9826 5.11064 18.9826C5.6125 18.9826 6.09394 18.7832 6.44872 18.4284L18.4014 6.47541C18.7563 6.12047 18.9556 5.63919 18.9556 5.13733C18.9556 4.63547 18.7563 4.15419 18.4014 3.79924L15.2266 0.623684ZM6.08461 14.8893C5.95163 15.0222 5.77131 15.097 5.58324 15.097C5.39517 15.097 5.21468 15.0222 5.0817 14.8893L2.68595 12.4932L3.68886 11.4903L6.08461 13.8865V13.8864C6.2176 14.0195 6.29232 14.1998 6.29232 14.3879C6.29232 14.576 6.2176 14.7563 6.08461 14.8893ZM6.57967 10.9954C6.44668 11.1282 6.26652 11.2029 6.07845 11.2029C5.89053 11.2029 5.71021 11.1282 5.57724 10.9954L4.88064 10.2989L5.88355 9.29603L6.57999 9.99263L6.58015 9.99247C6.71297 10.1256 6.7877 10.3059 6.78754 10.494C6.78754 10.6821 6.71265 10.8624 6.57967 10.9954ZM10.4734 10.5002C10.3402 10.633 10.1599 10.7077 9.97185 10.7077C9.78378 10.7077 9.60346 10.633 9.47048 10.5002L7.07472 8.10441L8.07764 7.1015L10.4734 9.49774C10.6061 9.63072 10.6808 9.81088 10.6808 9.99895C10.6808 10.1869 10.6061 10.3672 10.4734 10.5002ZM10.9683 6.60628V6.60612C10.8353 6.7391 10.6551 6.81383 10.4671 6.81383C10.2792 6.81383 10.0988 6.7391 9.96586 6.60612L9.26925 5.90968L10.2722 4.90677L10.9686 5.60337L10.9688 5.60321C11.1017 5.73635 11.1765 5.91683 11.1765 6.10491C11.1765 6.29299 11.1016 6.47347 10.9686 6.60645L10.9683 6.60628ZM14.8617 6.11139V6.11123C14.7287 6.24421 14.5484 6.31878 14.3603 6.31878C14.1722 6.31878 13.9919 6.24422 13.8589 6.11123L11.4633 3.7158L12.4663 2.71289L14.862 5.10864C14.995 5.24162 15.0697 5.42194 15.0697 5.61002C15.0697 5.79809 14.995 5.97841 14.862 6.11139L14.8617 6.11139Z" fill="#69CECC"/>
</g>
<defs>
<clipPath id="clip0_1047_23052">
<rect width="19" height="19" fill="white"/>
</clipPath>
</defs>
</svg>
