<svg width="19" height="28" viewBox="0 0 19 28" fill="none" xmlns="http://www.w3.org/2000/svg">
<g clip-path="url(#clip0_1047_22981)">
<path d="M18.8077 22.5561L16.0211 18.6699C15.8539 18.4446 15.5751 18.3602 15.3244 18.4727L13.4015 19.2897C13.2902 19.346 13.2064 19.4305 13.1228 19.515L11.2557 22.6127C11.1721 22.7816 11.005 22.8661 10.8098 22.8943L6.99233 23.232C6.85296 23.232 6.74158 23.3165 6.63001 23.4009L5.18089 24.8653C5.06951 24.9779 4.95793 25.0342 4.81856 25.0342L1.41903 25.2876C1.22387 25.2876 1.0567 25.4002 0.94532 25.5974L0.388037 26.6112C0.165079 27.0054 0.443824 27.4841 0.889537 27.4841H18.3341C18.6406 27.4841 18.9194 27.2307 18.9194 26.8926V22.8941C18.9194 22.7813 18.8914 22.6405 18.8078 22.556L18.8077 22.5561Z" fill="#37EBE1"/>
<path d="M6.15342 7.52303C7.29232 7.53305 8.20744 8.47414 8.19754 9.62503C8.18762 10.7759 7.25634 11.7007 6.11744 11.6907C4.97854 11.6806 4.06342 10.7396 4.07332 9.58867C4.08324 8.43778 5.01452 7.51282 6.15342 7.52303Z" fill="#37EBE1"/>
<path d="M1.0288 17.3746C1.33535 17.3746 1.64187 17.2338 1.80907 16.9523L2.36635 16.1358C2.81226 15.4599 3.45315 14.925 4.17759 14.6152V17.9663L3.75967 20.7259L2.31055 24.2177L4.59572 24.0487L4.79088 23.8515L5.79408 21.4017C5.82187 21.3172 5.84987 21.2327 5.84987 21.1483L6.18421 18.8674L8.44136 19.7966L8.2184 22.1339L10.4198 21.9367L10.6985 19.2332C10.7543 18.7545 10.4756 18.2759 10.0297 18.1069L8.19041 17.3185V13.9393L8.30179 13.9112C9.49996 13.6015 10.587 12.9255 11.4228 11.9964L11.5064 12.1937C11.59 12.3909 11.7572 12.5034 11.9523 12.5034C12.0081 12.5034 12.0917 12.5034 12.1475 12.4753C12.3982 12.3628 12.5098 12.0811 12.4262 11.8277L12.1475 11.1518L12.454 10.7857C12.7884 10.3634 12.7328 9.77192 12.3146 9.43405C12.0359 9.20875 11.7016 9.18066 11.395 9.29321L9.97389 5.91366L13.4572 4.44929C13.708 4.33674 13.8473 4.05506 13.736 3.7734L12.5934 1.01377C12.482 0.732089 12.2033 0.619539 11.9245 0.732089L8.46917 2.19646L8.32979 1.88669C8.21841 1.63329 7.93967 1.52055 7.68891 1.60501C7.43816 1.71756 7.32658 1.99924 7.41016 2.25264L10.5591 9.99664L10.0854 10.5598C9.50014 11.2919 8.69211 11.8269 7.77251 12.0523L7.54955 12.1086C7.18722 12.1931 6.85288 12.2495 6.46275 12.2495H5.96125C5.34818 12.2495 4.7073 12.3339 4.09418 12.5312C2.75663 12.9535 1.55826 13.8266 0.75023 15.0093L0.192947 15.8258C-0.113596 16.2764 0.0257765 16.8677 0.443702 17.1494C0.666466 17.2902 0.833631 17.3746 1.0288 17.3746Z" fill="#37EBE1"/>
</g>
<defs>
<clipPath id="clip0_1047_22981">
<rect width="19" height="28" fill="white"/>
</clipPath>
</defs>
</svg>
