<svg width="21" height="22" viewBox="0 0 21 22" fill="none" xmlns="http://www.w3.org/2000/svg">
<path d="M2.57327 17.8927C1.00823 16.2082 0.0979195 14.019 0.00745989 11.7213C-0.0830193 9.42368 0.651985 7.16974 2.07978 5.3672C3.50741 3.56481 5.53329 2.33308 7.79063 1.89522C10.0479 1.45736 12.3872 1.84219 14.3853 2.98007L14.3985 3.08737L12.9392 4.54665H12.9393C11.3291 3.76534 9.4941 3.57981 7.75983 4.02287C6.02576 4.46609 4.50473 5.50935 3.46691 6.96743C2.42901 8.42566 1.94146 10.2043 2.09045 11.9881C2.23962 13.7717 3.01586 15.4448 4.28136 16.7102C5.54701 17.9759 7.22009 18.7521 9.00389 18.9013C10.7873 19.0503 12.5662 18.5626 14.0242 17.5247C15.4824 16.4869 16.5257 14.9659 16.9687 13.2318C17.4119 11.4977 17.2264 9.66271 16.4449 8.05224L17.9042 6.59295L18.0115 6.60609C19.0451 8.42147 19.4587 10.5242 19.1894 12.5959C18.9201 14.6673 17.9828 16.5946 16.5195 18.0853C16.7671 18.7601 17.133 19.7352 17.374 20.375C17.4332 20.5237 17.4144 20.6921 17.3237 20.824C17.2331 20.9561 17.0827 21.0342 16.9225 21.0322H14.6986C14.5615 21.0323 14.4299 20.9781 14.3327 20.881L13.5921 20.1404L13.5922 20.1405C12.3193 20.7164 10.9359 21.0079 9.53875 20.9941C8.14152 20.9805 6.76416 20.6623 5.5025 20.0617L4.683 20.8811L4.68315 20.881C4.58595 20.978 4.45436 21.0323 4.31711 21.0322H2.09975C1.93973 21.0341 1.78934 20.956 1.69871 20.824C1.60808 20.6921 1.58928 20.5237 1.64842 20.3749C1.91359 19.6693 2.32762 18.5629 2.57309 17.8924L2.57327 17.8927ZM9.74666 9.78571C9.31643 9.75499 8.8923 9.90187 8.57319 10.1921C8.25408 10.4824 8.0676 10.8906 8.05735 11.3219C8.04711 11.7532 8.21401 12.1698 8.51908 12.4747C8.82399 12.7798 9.2406 12.9467 9.67193 12.9365C10.1032 12.9262 10.5115 12.7398 10.8017 12.4206C11.0919 12.1015 11.2388 11.6774 11.2081 11.2472L17.3716 5.07696L18.4672 5.20183C18.6243 5.21971 18.7808 5.16484 18.8924 5.05281L20.9058 3.05464C20.9933 2.96722 21.0231 2.83761 20.9824 2.72085C20.9417 2.60423 20.838 2.52109 20.7152 2.50687L18.7126 2.28771L18.4934 0.285072C18.4792 0.162345 18.3961 0.0585673 18.2795 0.0179152C18.1627 -0.0227408 18.0331 0.00706397 17.9457 0.0944851L15.9409 2.09923C15.8289 2.21065 15.774 2.36731 15.7919 2.52426L15.9168 3.61979L9.74666 9.78571ZM9.62623 7.75894H9.71166L11.4646 6.00605C9.83777 5.44451 8.04407 5.653 6.58944 6.5726C5.13488 7.49222 4.17739 9.02334 3.98708 10.7337C3.7968 12.4439 4.39438 14.148 5.61128 15.365C6.82803 16.5818 8.53213 17.1795 10.2426 16.9892C11.9529 16.7989 13.484 15.8413 14.4037 14.3869C15.3233 12.9323 15.5318 11.1385 14.9703 9.51175L13.2174 11.2646V11.3501C13.218 12.3033 12.8397 13.2177 12.166 13.8921C11.4921 14.5664 10.578 14.9454 9.6248 14.9456C8.67157 14.9457 7.75731 14.5672 7.08313 13.8932C6.4091 13.219 6.03056 12.3047 6.03071 11.3515C6.03087 10.3983 6.4099 9.48411 7.08423 8.81028C7.75853 8.13657 8.67294 7.7583 9.62637 7.75893L9.62623 7.75894Z" fill="#FF585D"/>
</svg>
