<svg width="19" height="20" viewBox="0 0 19 20" fill="none" xmlns="http://www.w3.org/2000/svg">
<g clip-path="url(#clip0_1047_23024)">
<path d="M13.3944 7.21836C13.5566 7.14151 13.754 7.20986 13.8329 7.36782C13.9119 7.52578 13.8417 7.71792 13.6794 7.79476L12.1663 8.50348C12.004 8.58033 11.8066 8.51198 11.7277 8.35402C11.6488 8.19605 11.719 8.00392 11.8812 7.92708L13.3944 7.21836ZM5.3201 7.79053C5.15784 7.71367 5.08763 7.52153 5.16657 7.36359C5.24552 7.20563 5.43852 7.13728 5.60514 7.21413L7.11826 7.92285C7.28052 7.99971 7.35073 8.19184 7.27178 8.34979C7.19284 8.50773 6.99547 8.5761 6.83322 8.49925L5.3201 7.79053ZM9.1709 4.8787C9.1709 4.456 9.82871 4.456 9.82871 4.8787V6.7744C9.82871 7.1971 9.1709 7.1971 9.1709 6.7744V4.8787ZM9.7761 0.203418L10.4208 1.17261L11.5699 1.47153C11.798 1.53137 11.8988 1.80021 11.7322 1.99676L10.9909 2.88484L11.0568 4.04192C11.0699 4.26823 10.833 4.44747 10.5962 4.35359L9.49531 3.93941L8.38129 4.35359C8.15755 4.43895 7.92072 4.26823 7.93398 4.03767L7.99545 2.88059L7.24546 1.97975C7.0963 1.80037 7.19288 1.52711 7.41646 1.46743L8.56559 1.16852L9.21465 0.195082C9.35507 0.00279383 9.65328 0.00703049 9.7761 0.203418ZM9.94274 1.62521L9.49978 0.959185L9.06557 1.61246C9.0261 1.68081 8.95152 1.73624 8.8682 1.75766L8.0831 1.96256L8.58753 2.5689C8.64011 2.62874 8.67085 2.70985 8.66648 2.79521L8.62264 3.585L9.38137 3.29899C9.45595 3.27332 9.53927 3.26907 9.61822 3.29899L10.377 3.585L10.3331 2.79521C10.3287 2.71835 10.3551 2.6415 10.4077 2.5774L10.9209 1.96682L10.1358 1.76193C10.0568 1.74051 9.98658 1.69356 9.94274 1.62521ZM2.6054 4.35763L3.25011 5.32683L4.39924 5.62574C4.62734 5.68558 4.72813 5.95442 4.5615 6.14658L3.82477 7.0389L3.88625 8.20022C3.89935 8.42653 3.66703 8.60149 3.43019 8.50763L2.32931 8.09345L1.21529 8.51191C0.99155 8.59727 0.754718 8.4223 0.767979 8.19599L0.829454 7.03467L0.0794644 6.13383C-0.0696947 5.9502 0.0268847 5.68119 0.250464 5.62151L1.39959 5.3226L2.04865 4.34916C2.18454 4.15703 2.48262 4.16124 2.6054 4.35763ZM2.77219 5.77942L2.32924 5.11764L1.89503 5.77091C1.85556 5.84351 1.78097 5.8947 1.69766 5.91611L0.912561 6.12101L1.41699 6.72735C1.46957 6.78719 1.5003 6.86404 1.49594 6.95366L1.45209 7.74345L2.21083 7.45744C2.28541 7.43177 2.36872 7.42752 2.44767 7.45744L3.20641 7.74345L3.16257 6.95366C3.1582 6.8768 3.18457 6.79995 3.23715 6.73585L3.75032 6.12103L2.96522 5.91614C2.88612 5.89472 2.8204 5.84777 2.77219 5.77942ZM16.9468 4.35763L17.5915 5.32683L18.745 5.62574C18.9687 5.68558 19.0739 5.95442 18.9072 6.14658L18.1618 7.0389L18.2276 8.20022C18.2407 8.42653 18.0039 8.60149 17.767 8.50763L16.6661 8.09345L15.5521 8.51191C15.3284 8.59727 15.0961 8.4223 15.1048 8.19599L15.1663 7.03467L14.4163 6.13383C14.2628 5.9502 14.3594 5.68119 14.5873 5.62151L15.7364 5.3226L16.3855 4.34916C16.5259 4.15703 16.824 4.16124 16.9468 4.35763ZM17.1092 5.77942L16.6662 5.11764L16.232 5.77091C16.1882 5.84351 16.118 5.8947 16.0303 5.91611L15.2452 6.12101L15.7496 6.72735C15.8022 6.78719 15.8329 6.86404 15.8286 6.95366L15.7847 7.74345L16.5435 7.45744C16.6181 7.43177 16.7014 7.42752 16.7803 7.45744L17.5391 7.74345L17.4952 6.95366C17.4908 6.8768 17.5172 6.79995 17.5698 6.73585L18.083 6.12103L17.2979 5.91614C17.2275 5.89472 17.1574 5.84777 17.1092 5.77942ZM13.6751 11.0481L9.49959 10.0448L5.32406 11.0439L9.49959 12.043L13.6751 11.0481ZM9.57867 9.4086L15.1222 10.7364C15.2143 10.7578 15.2801 10.809 15.3327 10.8816L17.4685 13.9726C17.6133 14.169 17.5036 14.421 17.2842 14.4722L15.3765 14.9333V18.2678C15.3765 18.413 15.2756 18.5411 15.1266 18.5795L9.60062 19.903C9.53914 19.9158 9.50856 19.9329 9.39888 19.903L3.87291 18.5795C3.72375 18.5411 3.62296 18.413 3.62296 18.2678V14.9333L1.7151 14.4764C1.49589 14.4252 1.3862 14.1733 1.53083 13.9769C1.80715 13.6011 3.63605 10.9071 3.71937 10.826L3.88164 10.7406L9.42078 9.41284C9.46884 9.39583 9.52173 9.39584 9.57867 9.4086ZM14.9029 11.4111L10.0348 12.5767L11.7979 15.1341L16.6704 13.9643L14.9029 11.4111ZM14.7188 15.0913L11.7321 15.8085C11.6006 15.8384 11.4601 15.7914 11.3812 15.6762L9.82861 13.4261V19.1897L14.7187 18.0158L14.7188 15.0913ZM9.17089 13.4219L7.61831 15.6719C7.53936 15.7872 7.39457 15.8341 7.26741 15.8042L4.28067 15.0912V18.0158L9.17076 19.1856L9.17089 13.4219ZM8.96478 12.5766L4.09227 11.411L2.32919 13.9642L7.19731 15.1341L8.96478 12.5766Z" fill="#003594"/>
<path d="M14.9029 11.4111L10.0348 12.5767L11.7979 15.1341L16.6704 13.9643L14.9029 11.4111Z" fill="#003594"/>
<path d="M8.96478 12.5766L4.09227 11.411L2.32919 13.9642L7.19731 15.1341L8.96478 12.5766Z" fill="#003594"/>
<path d="M9.17089 13.4219L7.61831 15.6719C7.53936 15.7872 7.39457 15.8341 7.26741 15.8042L4.28067 15.0912V18.0158L9.17076 19.1856L9.17089 13.4219Z" fill="#003594"/>
<path d="M14.7188 15.0913L11.7321 15.8085C11.6006 15.8384 11.4601 15.7914 11.3812 15.6762L9.82861 13.4261V19.1897L14.7187 18.0158L14.7188 15.0913Z" fill="#003594"/>
<path d="M13.6751 11.0481L9.49959 10.0448L5.32406 11.0439L9.49959 12.043L13.6751 11.0481Z" fill="#003594"/>
<path d="M2.77219 5.77942L2.32924 5.11764L1.89503 5.77091C1.85556 5.84351 1.78097 5.8947 1.69766 5.91611L0.912561 6.12101L1.41699 6.72735C1.46957 6.78719 1.5003 6.86404 1.49594 6.95366L1.45209 7.74345L2.21083 7.45744C2.28541 7.43177 2.36872 7.42752 2.44767 7.45744L3.20641 7.74345L3.16257 6.95366C3.1582 6.8768 3.18457 6.79995 3.23715 6.73585L3.75032 6.12103L2.96522 5.91614C2.88612 5.89472 2.8204 5.84777 2.77219 5.77942Z" fill="#003594"/>
<path d="M9.94274 1.62521L9.49978 0.959185L9.06557 1.61246C9.0261 1.68081 8.95152 1.73624 8.8682 1.75766L8.0831 1.96256L8.58753 2.5689C8.64011 2.62874 8.67085 2.70985 8.66648 2.79521L8.62264 3.585L9.38137 3.29899C9.45595 3.27332 9.53927 3.26907 9.61822 3.29899L10.377 3.585L10.3331 2.79521C10.3287 2.71835 10.3551 2.6415 10.4077 2.5774L10.9209 1.96682L10.1358 1.76193C10.0568 1.74051 9.98658 1.69356 9.94274 1.62521Z" fill="#003594"/>
<path d="M17.1092 5.77942L16.6662 5.11764L16.232 5.77091C16.1882 5.84351 16.118 5.8947 16.0303 5.91611L15.2452 6.12101L15.7496 6.72735C15.8022 6.78719 15.8329 6.86404 15.8286 6.95366L15.7847 7.74345L16.5435 7.45744C16.6181 7.43177 16.7014 7.42752 16.7803 7.45744L17.5391 7.74345L17.4952 6.95366C17.4908 6.8768 17.5172 6.79995 17.5698 6.73585L18.083 6.12103L17.2979 5.91614C17.2275 5.89472 17.1574 5.84777 17.1092 5.77942Z" fill="#003594"/>
</g>
<defs>
<clipPath id="clip0_1047_23024">
<rect width="19" height="20" fill="white"/>
</clipPath>
</defs>
</svg>
