<svg width="20" height="20" viewBox="0 0 20 20" fill="none" xmlns="http://www.w3.org/2000/svg">
<g clip-path="url(#clip0_1047_22989)">
<path d="M10.0002 0.0388184C4.50586 0.0388184 0.0390625 4.50561 0.0390625 9.99998C0.0390625 15.4944 4.50586 19.9611 10.0002 19.9611C15.4946 19.9611 19.9614 15.4944 19.9614 9.99998C19.9614 4.50561 15.4946 0.0388184 10.0002 0.0388184ZM2.15712 6.68659C3.45743 3.62491 6.47712 1.48581 10.0002 1.48581C13.5233 1.48581 16.5431 3.62488 17.8433 6.68659C18.0949 7.29467 17.5917 7.96581 16.9417 7.9029C15.7882 7.81908 14.6348 7.75603 13.4815 7.71419C13.1251 7.69327 12.7895 7.56732 12.5379 7.33679C11.8667 6.74961 10.986 6.39314 10.0214 6.39314C9.05669 6.39314 8.17595 6.74963 7.50496 7.33679C7.23229 7.56748 6.89688 7.71419 6.5613 7.71419C5.38667 7.75603 4.23324 7.81908 3.0798 7.9029C2.40881 7.9658 1.90547 7.29482 2.15705 6.68659H2.15712ZM7.10625 18.0109C4.27525 16.9832 2.13615 14.5086 1.61188 11.4679C1.50699 10.7968 2.13615 10.2725 2.78621 10.4823C5.59627 11.426 7.69339 13.8168 8.21767 16.7316L8.25965 16.9832C8.40652 17.6542 7.75634 18.2414 7.10625 18.0109ZM10.0003 11.8035C9.11949 11.8035 8.38547 11.0905 8.38547 10.1887C8.38547 9.30791 9.09844 8.57389 10.0003 8.57389C10.9019 8.57389 11.6151 9.28686 11.6151 10.1887C11.6151 11.0905 10.881 11.8035 10.0003 11.8035ZM12.8943 18.0109C12.2442 18.2415 11.6151 17.6753 11.7408 17.0043L11.7828 16.7527C12.3071 13.8167 14.4042 11.4257 17.2143 10.482C17.8435 10.2723 18.4935 10.8176 18.3886 11.4677C17.8643 14.5084 15.7253 16.983 12.8942 18.0106L12.8943 18.0109Z" fill="#004778"/>
</g>
<defs>
<clipPath id="clip0_1047_22989">
<rect width="20" height="20" fill="white"/>
</clipPath>
</defs>
</svg>
