<svg width="24" height="18" viewBox="0 0 24 18" fill="none" xmlns="http://www.w3.org/2000/svg">
<g clip-path="url(#clip0_1047_23041)">
<path d="M14.7824 4.90595H21.1856H21.2238C21.6049 3.57918 22.5578 3.69291 22.5578 3.69291V0.0158691H20.8045V1.75962H19.1656V0.0158691H16.8787V1.75962H15.2397V0.0158691H13.4865V3.655C13.4483 3.655 14.4012 3.57918 14.7824 4.90595Z" fill="#FF4713"/>
<path d="M23.701 16.7332C23.6248 16.5816 23.5104 16.5058 23.3961 16.4299C22.9387 16.2025 22.8625 15.8234 22.8625 15.6339V15.4823C23.2436 15.4823 23.5867 15.179 23.5867 14.762V14.0039C23.5867 13.6248 23.2817 13.2836 22.8625 13.2836H22.3289C22.3289 13.2836 21.9858 11.9948 21.2998 8.12817H21.1854H14.7821H14.6678C13.9817 11.9948 13.6387 13.2836 13.6387 13.2836H13.1051C12.7239 13.2836 12.3809 13.5869 12.3809 14.0039V14.762C12.3809 15.1411 12.6858 15.4823 13.1051 15.4823V15.6339C13.1051 15.8613 13.0289 16.2404 12.5715 16.4299C12.419 16.5058 12.3047 16.6195 12.2666 16.7332C12.076 17.1123 11.7711 17.9083 12.3809 17.9842H23.5488C24.1967 17.9083 23.8918 17.1502 23.7012 16.7332H23.701Z" fill="#FF4713"/>
<path d="M20.9181 5.55054H15.0485C14.5911 5.55054 14.248 5.89171 14.248 6.3466V6.72567C14.248 7.18056 14.5911 7.52173 15.0485 7.52173H20.9181C21.3755 7.52173 21.7185 7.18056 21.7185 6.72567V6.3466C21.7185 5.89171 21.3755 5.55054 20.9181 5.55054Z" fill="#FF4713"/>
<path d="M10.2843 14.8376H0.793516C0.374254 14.8376 0.0693359 15.1788 0.0693359 15.5579C0.0693359 15.9749 0.412369 16.2781 0.793516 16.2781H10.2843C10.7036 16.2781 11.0085 15.937 11.0085 15.5579C11.0085 15.1788 10.6655 14.8376 10.2843 14.8376Z" fill="#FF4713"/>
<path d="M10.2842 16.9606H0.79343C0.602856 16.9606 0.450397 16.9227 0.297938 16.8848L0.183594 17.9841H11.0082L10.8176 16.8848C10.6652 16.9227 10.4746 16.9606 10.284 16.9606H10.2842Z" fill="#FF4713"/>
<path d="M1.251 9.49302C1.55592 10.1754 1.44158 10.7819 1.21289 11.2368C1.09854 11.5021 1.28912 11.8054 1.55592 11.8054C2.08953 11.8812 2.77559 12.1465 3.34731 13.1701H0.67928L0.564936 14.1936H0.793625H10.2844C10.3988 14.1936 10.5131 14.1936 10.6274 14.2315L10.5131 13.1701H10.475C10.7037 12.7531 10.8561 11.957 10.2844 10.5923C9.82704 9.53092 9.06474 8.62114 8.14999 7.9009C7.08278 7.06693 5.52007 5.74016 6.28237 5.55062C6.28237 5.55062 8.26433 5.89179 9.29343 6.19505C9.67458 6.30878 10.0938 6.15715 10.3225 5.81598L10.5893 5.4369C10.8561 5.05783 10.7799 4.48921 10.4369 4.22386C9.40778 3.35198 8.22622 1.41869 6.93032 1.49451V0.0540208C6.93032 0.0540208 2.54734 -0.552501 0.793625 3.08663C0.260018 4.18595 0.145674 5.39899 0.374362 6.57413C0.564936 7.4081 0.831739 8.54533 1.251 9.49302ZM2.35633 4.3757C2.81371 3.27638 3.72846 1.8359 5.55797 2.02543C5.55797 2.02543 3.53789 2.63195 3.08051 4.07244C3.08051 4.07244 2.58502 5.24758 2.96617 7.55994C3.0424 7.93902 3.0424 8.356 3.0424 8.73508C3.00428 9.11416 2.92805 9.60695 2.81371 9.87231C2.85182 9.87231 1.93707 5.47503 2.35633 4.37549V4.3757Z" fill="#FF4713"/>
</g>
<defs>
<clipPath id="clip0_1047_23041">
<rect width="24" height="18" fill="white"/>
</clipPath>
</defs>
</svg>
