<svg width="26" height="16" viewBox="0 0 26 16" fill="none" xmlns="http://www.w3.org/2000/svg">
<g clip-path="url(#clip0_1047_23030)">
<path d="M16.8768 3.98389C16.8768 6.18206 15.1412 7.96411 13.0004 7.96411C10.8596 7.96411 9.12402 6.18206 9.12402 3.98389C9.12402 1.78571 10.8596 0.00366211 13.0004 0.00366211C15.1412 0.00366211 16.8768 1.78571 16.8768 3.98389Z" fill="#008675"/>
<path d="M6.54004 15.9245C6.54004 12.2097 9.3828 9.29077 13.0006 9.29077C16.6185 9.29077 19.4613 12.2097 19.4613 15.9245H6.54004Z" fill="#008675"/>
<path d="M23.3374 6.63737C23.3374 8.10295 22.1805 9.29085 20.7532 9.29085C19.3259 9.29085 18.1689 8.10295 18.1689 6.63737C18.1689 5.17179 19.3259 3.98389 20.7532 3.98389C22.1805 3.98389 23.3374 5.17179 23.3374 6.63737Z" fill="#008675"/>
<path d="M25.9211 15.9246H22.0448C22.0448 13.9345 21.3987 12.0771 20.4941 10.6176C22.9493 10.3522 25.921 12.6077 25.921 15.9246H25.9211Z" fill="#008675"/>
<path d="M7.83157 6.63737C7.83157 8.10295 6.67466 9.29085 5.24733 9.29085C3.82 9.29085 2.66309 8.10295 2.66309 6.63737C2.66309 5.17179 3.82 3.98389 5.24733 3.98389C6.67466 3.98389 7.83157 5.17179 7.83157 6.63737Z" fill="#008675"/>
<path d="M0.0791938 15.9246H3.95556C3.95556 13.9345 4.60162 12.0771 5.63522 10.6176C3.05098 10.3522 0.0791016 12.6077 0.0791016 15.9246H0.0791938Z" fill="#008675"/>
</g>
<defs>
<clipPath id="clip0_1047_23030">
<rect width="26" height="16" fill="white"/>
</clipPath>
</defs>
</svg>
