<svg width="26" height="19" viewBox="0 0 26 19" fill="none" xmlns="http://www.w3.org/2000/svg">
<g clip-path="url(#clip0_1047_22974)">
<path d="M19.6523 9.68743H24.258C25.0768 9.68743 25.7933 8.95449 25.7933 8.11676V1.83409C25.7933 0.996369 25.0768 0.263428 24.258 0.263428H19.6523C19.3452 0.263428 19.1406 0.47291 19.1406 0.786909V9.16361C19.1406 9.47783 19.3454 9.68731 19.6523 9.68731V9.68743Z" fill="#00B4FF"/>
<path d="M1.74197 7.69766H7.67841V8.11639C7.67841 8.43062 7.88317 8.63988 8.19008 8.63988H8.49722V10.8388L3.78914 17.5405C3.78914 17.8547 3.78914 18.1687 4.09627 18.3782C4.30103 18.5877 4.60794 18.4829 4.81268 18.2734L9.41839 11.5723L10.9536 11.5721V17.9596C10.9536 18.2739 11.1584 18.4831 11.4653 18.4831C11.7724 18.4831 11.977 18.2736 11.977 17.9596V11.5721H13.6146L18.2203 18.2732C18.4251 18.4827 18.732 18.5874 18.9367 18.378C19.1414 18.1685 19.2438 17.8545 19.0391 17.645L14.331 10.9439V8.745H18.1179V1.41504H8.29236C7.98523 1.41504 7.78069 1.62452 7.78069 1.93852V2.35726L1.74227 2.35748C0.923439 2.35748 0.207031 3.09042 0.207031 3.92815V6.23175C0.207031 7.06948 0.923439 7.69769 1.74227 7.69769L1.74197 7.69766Z" fill="#00B4FF"/>
</g>
<defs>
<clipPath id="clip0_1047_22974">
<rect width="26" height="19" fill="white"/>
</clipPath>
</defs>
</svg>
