<svg width="45" height="46" viewBox="0 0 45 46" fill="none" xmlns="http://www.w3.org/2000/svg">
<path d="M11 21.2C11.8 22 11.8 23.3 11 24.2L7.3 27.9C6.5 28.7 5.2 28.7 4.3 27.9L0.6 24.2C-0.2 23.4 -0.2 22.1 0.6 21.2L4.3 17.5C5.1 16.7 6.4 16.7 7.3 17.5L11 21.2Z" fill="#E4186A"/>
<path d="M25.7 15.8C24.9 15 24.9 13.7 25.7 12.8L29.4 9.1C30.2 8.3 31.5 8.3 32.4 9.1L40.7 17.4L44.4 21.1C45.2 21.9 45.2 23.2 44.4 24.1L32.3 36.2C31.5 37 30.2 37 29.3 36.2L25.6 32.5C24.8 31.7 24.8 30.4 25.6 29.6L31 24.2C31.8 23.4 31.8 22 31 21.2L25.7 15.8Z" fill="#42AD49"/>
<path d="M15.6 25.8C15.4 25.6 15.2 25.5 15 25.4V19.9C15.2 19.8 15.4 19.7 15.6 19.5L19.3 15.8C20.1 15 20.1 13.7 19.3 12.8L15.6 9.1C14.8 8.3 13.5 8.3 12.6 9.1L8.99999 12.8C8.19999 13.6 8.19999 14.9 8.99999 15.8L12.7 19.5C12.9 19.7 13.1 19.8 13.3 19.9V25.4C13.1 25.5 12.9 25.6 12.7 25.8L8.99999 29.5C8.19999 30.3 8.19999 31.6 8.99999 32.5L12.7 36.2C13.5 37 14.8 37 15.7 36.2L19.4 32.5C20.2 31.7 20.2 30.4 19.4 29.5L15.6 25.8Z" fill="#F18830"/>
<path d="M24 34.1C23.8 33.9 23.6 33.8 23.4 33.7V28.2C23.6 28.1 23.8 28 24 27.8L27.7 24.1C28.5 23.3 28.5 22 27.7 21.1L24 17.4C23.8 17.2 23.6 17.1 23.4 17V11.5C23.6 11.4 23.8 11.3 24 11.1L27.7 7.39998C28.5 6.59998 28.5 5.29998 27.7 4.39998L24 0.699976C23.2 -0.100024 21.9 -0.100024 21 0.699976L17.3 4.39998C16.5 5.19998 16.5 6.49998 17.3 7.39998L21 11.1C21.2 11.3 21.4 11.4 21.6 11.5V17C21.4 17.1 21.2 17.2 21 17.4L17.3 21.1C16.5 21.9 16.5 23.2 17.3 24.1L21 27.8C21.2 28 21.4 28.1 21.6 28.2V33.7C21.4 33.8 21.2 33.9 21 34.1L17.3 37.8C16.5 38.6 16.5 39.9 17.3 40.8L21 44.5C21.8 45.3 23.1 45.3 24 44.5L27.7 40.8C28.5 40 28.5 38.7 27.7 37.8L24 34.1Z" fill="#2666BC"/>
</svg>
