<svg id="Layer_1" data-name="Layer 1" xmlns="http://www.w3.org/2000/svg" viewBox="0 0 864 220"><defs><style>.cls-1{fill:#fff;}.cls-2{fill:#10cfc9;}.cls-3{fill:#009ade;}.cls-4{fill:#0075c9;}</style></defs><path class="cls-1" d="M501.3,140.11,467,71.22a9.63,9.63,0,0,0-17.11,0l-34.34,68.89a9.43,9.43,0,1,0,16.88,8.42l7.1-14.24h37.83l7.1,14.24a9.46,9.46,0,0,0,12.65,4.24h0A9.47,9.47,0,0,0,501.3,140.11Zm-52.86-23.77,10-20,10,20Z"/><path class="cls-1" d="M698.56,137.47,670,107.56l23.82-25a9.74,9.74,0,0,0-.33-13.74,9.48,9.48,0,0,0-13.36.32L647,104V75.58A9.61,9.61,0,0,0,637.4,66h0a9.62,9.62,0,0,0-9.59,9.58v68.59a9.62,9.62,0,0,0,9.59,9.58h0a9.61,9.61,0,0,0,9.58-9.58v-13c1.41-1.33,9.81-9.7,9.81-9.7l27.9,29.25a9.49,9.49,0,0,0,13.38.31l.17-.16A9.49,9.49,0,0,0,698.56,137.47Z"/><ellipse class="cls-2" cx="595.54" cy="77.64" rx="11.61" ry="11.64"/><ellipse class="cls-3" cx="595.54" cy="109.88" rx="11.61" ry="11.64"/><ellipse class="cls-4" cx="595.54" cy="142.11" rx="11.61" ry="11.64"/><path class="cls-1" d="M562.41,66H508.5a9.66,9.66,0,0,0-9.63,9.63h0a9.66,9.66,0,0,0,9.63,9.64h17.32v58.85a9.64,9.64,0,0,0,19.27,0V85.27h17.32A9.66,9.66,0,0,0,572,75.63h0A9.66,9.66,0,0,0,562.41,66Z"/><path class="cls-1" d="M796.1,140.11,761.76,71.22a9.63,9.63,0,0,0-17.11,0l-34.34,68.89a9.47,9.47,0,0,0,4.23,12.66h0a9.46,9.46,0,0,0,12.65-4.24l7.1-14.24h37.83l7.1,14.24a9.46,9.46,0,0,0,12.65,4.24h0A9.47,9.47,0,0,0,796.1,140.11Zm-52.86-23.77,10-20,10,20Z"/><path class="cls-1" d="M401.58,75.22a8.55,8.55,0,0,0-3.52-7.47h0c-3.82-2.76-10.54-2.27-13.29,1.55l-27,37-27-37c-2.76-3.82-9.47-4.31-13.29-1.55A8.55,8.55,0,0,0,314,75.22c0,.15,0,69,0,69a9.55,9.55,0,1,0,19.1,0V104l17.58,24.39a8.59,8.59,0,0,0,7.08,3.54h.17a8.62,8.62,0,0,0,7.08-3.54L382.51,104V144.2a9.55,9.55,0,1,0,19.09,0S401.59,75.37,401.58,75.22Z"/><path class="cls-1" d="M199.57,134.58H164.35v-59A9.61,9.61,0,0,0,154.77,66h0a9.62,9.62,0,0,0-9.59,9.58v68.59a9.62,9.62,0,0,0,9.59,9.58h44.8a9.46,9.46,0,0,0,9.43-9.43V144A9.46,9.46,0,0,0,199.57,134.58Z"/><path class="cls-1" d="M124.14,66H75.89a9,9,0,0,0-9,9,3,3,0,0,0,0,.31c0,.1,0,.2,0,.3v68.59a9.61,9.61,0,0,0,9.58,9.58h0a9.61,9.61,0,0,0,9.59-9.58v-25h25.1a9,9,0,0,0,0-18H86.08V84h38.06a9,9,0,1,0,0-18Z"/><path class="cls-1" d="M288.43,79.1a43.56,43.56,0,0,0-31-12.85l-1.73,0v0a43.86,43.86,0,1,0,45.6,43.82A43.54,43.54,0,0,0,288.43,79.1Zm-4.59,31A26.43,26.43,0,1,1,257.41,83.7,26.43,26.43,0,0,1,283.84,110.12Z"/></svg>