<svg id="Layer_1" data-name="Layer 1" xmlns="http://www.w3.org/2000/svg" viewBox="0 0 95 95"><defs><style>.cls-1{fill:#fff;}.cls-2{fill:#0075c9;}</style></defs><rect class="cls-1" width="95" height="95"/><path class="cls-2" d="M30.2,33.21l3-5.88h3.27L31.7,36.05v5.56h-3V36.15L24,27.33h3.28Z"/><path class="cls-2" d="M47.92,36.13a5.85,5.85,0,0,1-1.41,4.17,5.09,5.09,0,0,1-3.91,1.5,5.49,5.49,0,0,1-2.78-.69,4.5,4.5,0,0,1-1.84-2,6.67,6.67,0,0,1-.65-3A5.85,5.85,0,0,1,38.73,32a5.13,5.13,0,0,1,3.93-1.49,5.47,5.47,0,0,1,2.77.69,4.56,4.56,0,0,1,1.85,2A6.57,6.57,0,0,1,47.92,36.13Zm-7.55,0a4.62,4.62,0,0,0,.53,2.45,1.93,1.93,0,0,0,1.74.83,1.86,1.86,0,0,0,1.71-.83,4.6,4.6,0,0,0,.52-2.45,4.52,4.52,0,0,0-.52-2.43,2.25,2.25,0,0,0-3.45,0A4.53,4.53,0,0,0,40.37,36.13Z"/><path class="cls-2" d="M58.12,41.61l-.41-1.4h-.15a3.15,3.15,0,0,1-1.36,1.18,4.7,4.7,0,0,1-2,.41,3.8,3.8,0,0,1-2.9-1,4.13,4.13,0,0,1-1-3V30.69h3v6.38a3.08,3.08,0,0,0,.42,1.77,1.54,1.54,0,0,0,1.34.59,2,2,0,0,0,1.81-.84,5.15,5.15,0,0,0,.55-2.76V30.69h3V41.61Z"/><path class="cls-2" d="M69.62,30.48a4.61,4.61,0,0,1,1,.09l-.22,2.8a3.18,3.18,0,0,0-.88-.1A3.15,3.15,0,0,0,67.3,34a2.65,2.65,0,0,0-.8,2v5.56h-3V30.69h2.25l.44,1.84h.15a4,4,0,0,1,1.37-1.48A3.35,3.35,0,0,1,69.62,30.48Z"/><path class="cls-2" d="M31,65.61H28V50.41h3Z"/><path class="cls-2" d="M44,60.13a5.84,5.84,0,0,1-1.4,4.17,5.12,5.12,0,0,1-3.92,1.5,5.45,5.45,0,0,1-2.77-.69,4.53,4.53,0,0,1-1.85-2,6.67,6.67,0,0,1-.64-3A5.83,5.83,0,0,1,34.81,56a5.15,5.15,0,0,1,3.93-1.49,5.45,5.45,0,0,1,2.77.69,4.56,4.56,0,0,1,1.85,2A6.57,6.57,0,0,1,44,60.13Zm-7.54,0A4.53,4.53,0,0,0,37,62.58a1.9,1.9,0,0,0,1.73.83,1.85,1.85,0,0,0,1.71-.83A4.57,4.57,0,0,0,41,60.13a4.52,4.52,0,0,0-.53-2.43,2.25,2.25,0,0,0-3.45,0A4.54,4.54,0,0,0,36.46,60.13Z"/><path class="cls-2" d="M56,54.69V56.2l-1.71.44a3,3,0,0,1,.47,1.64A3.29,3.29,0,0,1,53.5,61a5.27,5.27,0,0,1-3.4,1l-.54,0-.44,0a1,1,0,0,0-.46.78c0,.43.55.64,1.64.64h1.86a4.26,4.26,0,0,1,2.74.77,2.76,2.76,0,0,1,.94,2.27,3.36,3.36,0,0,1-1.6,3,8.32,8.32,0,0,1-4.58,1,6.33,6.33,0,0,1-3.49-.79A2.53,2.53,0,0,1,45,67.38a2.36,2.36,0,0,1,.62-1.65,3.51,3.51,0,0,1,1.8-.94,2.1,2.1,0,0,1-.8-.64,1.57,1.57,0,0,1,0-2,4.12,4.12,0,0,1,1-.82,2.93,2.93,0,0,1-1.37-1.19,3.68,3.68,0,0,1-.5-1.94,3.42,3.42,0,0,1,1.16-2.76,5.06,5.06,0,0,1,3.32-1,7.82,7.82,0,0,1,1.09.09q.63.07.81.12ZM47.54,67.15a1.1,1.1,0,0,0,.59,1,3.31,3.31,0,0,0,1.66.35,5.87,5.87,0,0,0,2.5-.44,1.33,1.33,0,0,0,.91-1.2.85.85,0,0,0-.53-.85A4.34,4.34,0,0,0,51,65.74H49.46a2.33,2.33,0,0,0-1.37.39A1.19,1.19,0,0,0,47.54,67.15Zm1.08-8.89A2.21,2.21,0,0,0,49,59.67a1.48,1.48,0,0,0,1.23.52,1.46,1.46,0,0,0,1.23-.52,2.27,2.27,0,0,0,.39-1.41c0-1.31-.54-2-1.62-2S48.62,57,48.62,58.26Z"/><path class="cls-2" d="M67.69,60.13a5.85,5.85,0,0,1-1.41,4.17,5.11,5.11,0,0,1-3.92,1.5,5.47,5.47,0,0,1-2.77-.69,4.53,4.53,0,0,1-1.85-2,6.67,6.67,0,0,1-.64-3A5.83,5.83,0,0,1,58.5,56a5.12,5.12,0,0,1,3.92-1.49,5.51,5.51,0,0,1,2.78.69,4.53,4.53,0,0,1,1.84,2A6.57,6.57,0,0,1,67.69,60.13Zm-7.55,0a4.53,4.53,0,0,0,.53,2.45,2.21,2.21,0,0,0,3.45,0,4.68,4.68,0,0,0,.52-2.45,4.52,4.52,0,0,0-.53-2.43,1.91,1.91,0,0,0-1.73-.81,1.93,1.93,0,0,0-1.72.8A4.54,4.54,0,0,0,60.14,60.13Z"/></svg>