<svg xmlns="http://www.w3.org/2000/svg" viewBox="0 0 266 266"><defs><style>.cls-1{fill:#0075c9;}.cls-2{fill:#fff;}</style></defs><g id="mono"><circle class="cls-1" cx="133.6" cy="133" r="128"/><path class="cls-2" d="M198.6,173.75H188.08a16,16,0,0,1-29.65,0H68.6v-12h89.83a16,16,0,0,1,29.65,0H198.6Z"/><path class="cls-2" d="M198.6,139H148.42a16,16,0,0,1-29.65,0H68.6V127h50.17a16,16,0,0,1,29.65,0H198.6Z"/><path class="cls-2" d="M198.6,104.25H108.76a16,16,0,0,1-29.65,0H68.6v-12H79.11a16,16,0,0,1,29.65,0H198.6Z"/></g></svg>