<svg xmlns="http://www.w3.org/2000/svg" viewBox="0 0 266 266"><defs><style>.cls-1{fill:#0075c9;}.cls-2{fill:#fff;}</style></defs><g id="mono"><circle class="cls-1" cx="132.4" cy="133" r="128"/><path class="cls-2" d="M67.4,74.63V191.37h97.76l32.24-32V74.63ZM92.23,92.25a5.68,5.68,0,1,1-6.56-6.56A5.67,5.67,0,0,1,92.23,92.25Zm33.39,69.09q-5.59,4.29-16,4.29a38.76,38.76,0,0,1-15.44-2.89v-9.62a34.77,34.77,0,0,0,6.84,2.56,28.73,28.73,0,0,0,7.39,1c3.74,0,6.49-.63,8.27-1.9s2.67-3.31,2.67-6.11a5.52,5.52,0,0,0-3.07-5.35q-3.08-1.58-9.81-1.57h-4.06v-8.67h4.14c4.14,0,7.17-.55,9.09-1.63s2.87-2.95,2.87-5.58q0-6.08-7.61-6.08a17.58,17.58,0,0,0-5.36.88,26.33,26.33,0,0,0-6.06,3l-5.23-7.8a29.11,29.11,0,0,1,17.46-5.27c5.53,0,9.91,1.13,13.11,3.37a10.81,10.81,0,0,1,4.82,9.37,12.64,12.64,0,0,1-3,8.53,15.79,15.79,0,0,1-8.53,4.83V137q6.48.8,9.81,3.93a11,11,0,0,1,3.33,8.43Q131.22,157,125.62,161.34Zm39.45,3.56H153.76c0-7.9-.14-34.18.29-41.6-3.35,3.5-6.77,5.94-10.06,8.63l-5.45-6.8,17.23-13.73h9.3Zm18.71-72.65a5.68,5.68,0,1,1-6.57-6.56A5.7,5.7,0,0,1,183.78,92.25Z"/></g></svg>