<svg xmlns="http://www.w3.org/2000/svg" viewBox="0 0 266 266"><defs><style>.cls-1{fill:#0075c9;}.cls-2{fill:#fff;}</style></defs><g id="mono"><ellipse class="cls-1" cx="133.6" cy="133.01" rx="127.82" ry="128.15" transform="translate(-54.92 133.42) rotate(-45)"/><path class="cls-2" d="M161.1,133a27.5,27.5,0,1,1-27.5-27.5A27.51,27.51,0,0,1,161.1,133Zm37.5-13.94H177.65a45.74,45.74,0,0,0-3.05-7.37l14.8-14.81-19.69-19.7L154.9,92a44.85,44.85,0,0,0-7.37-3V68H119.66V89a46.22,46.22,0,0,0-7.38,3L97.47,77.2,77.78,96.9l14.81,14.8a45.78,45.78,0,0,0-3.06,7.37H68.6v27.87H89.53a45.4,45.4,0,0,0,3.06,7.37L77.78,169.12l19.7,19.7L112.28,174a46.77,46.77,0,0,0,7.38,3.05V198h27.87V177.07A46.7,46.7,0,0,0,154.9,174l14.81,14.81,19.7-19.7-14.81-14.8a45.1,45.1,0,0,0,3.05-7.38H198.6Z"/></g></svg>