<svg xmlns="http://www.w3.org/2000/svg" viewBox="0 0 266 266"><defs><style>.cls-1{fill:#0075c9;}.cls-2{fill:#fff;}</style></defs><g id="mono"><ellipse class="cls-1" cx="133.6" cy="133.01" rx="127.82" ry="128.15" transform="translate(-54.92 133.42) rotate(-45)"/><path class="cls-2" d="M117.63,113a19,19,0,1,1-19-19A19,19,0,0,1,117.63,113Zm19.61,25L127,127.76a30.52,30.52,0,0,0,2.11-5.11H143.6V103.36H129.09a30.76,30.76,0,0,0-2.11-5.1L137.23,88,123.6,74.37,113.34,84.62a31.31,31.31,0,0,0-5.1-2.12V68H89V82.5a32.73,32.73,0,0,0-5.11,2.12L73.59,74.37,60,88,70.21,98.26a31.68,31.68,0,0,0-2.12,5.1H53.6v19.29H68.09a31.31,31.31,0,0,0,2.12,5.1L60,138l13.64,13.64,10.25-10.26A30.87,30.87,0,0,0,89,143.5V158h19.29v-14.5a31.31,31.31,0,0,0,5.1-2.12l10.26,10.26Z"/><path class="cls-2" d="M213.6,169.68v-15H202.32a24.25,24.25,0,0,0-1.65-4l8-8L198,132.12l-8,8a25.11,25.11,0,0,0-4-1.64V127.17h-15v11.28a25.11,25.11,0,0,0-4,1.64l-8-8-10.6,10.61,8,8a24.25,24.25,0,0,0-1.65,4H143.6v15h11.27a23.78,23.78,0,0,0,1.65,4l-8,8,10.61,10.61,8-8a24.21,24.21,0,0,0,4,1.64v11.28h15V185.9a24.25,24.25,0,0,0,4-1.65l8,8,10.61-10.61-8-8a24.25,24.25,0,0,0,1.65-4Zm-35,7.3a14.81,14.81,0,1,1,14.8-14.81A14.81,14.81,0,0,1,178.6,177Z"/></g></svg>