<svg xmlns="http://www.w3.org/2000/svg" viewBox="0 0 266 266"><defs><style>.cls-1{fill:#0075c9;}.cls-2{fill:#fff;}</style></defs><g id="mono"><circle class="cls-1" cx="133.6" cy="133" r="128"/><polygon class="cls-2" points="189.06 198 118.2 198 90.13 198 90.13 169.93 90.13 68 118.2 68 118.2 85.3 104.69 85.3 104.69 89.45 118.2 89.45 118.2 92.64 108.84 92.64 108.84 96.8 118.2 96.8 118.2 112.59 104.69 112.59 104.69 116.75 118.2 116.75 118.2 119.94 108.84 119.94 108.84 124.09 118.2 124.09 118.2 127.28 104.69 127.28 104.69 131.44 118.2 131.44 118.2 147.23 108.84 147.23 108.84 151.39 118.2 151.39 118.2 154.57 104.69 154.57 104.69 158.74 118.2 158.74 118.2 169.93 126.66 169.93 126.66 183.44 130.82 183.44 130.82 169.93 134.01 169.93 134.01 179.28 138.17 179.28 138.17 169.93 141.35 169.93 141.35 183.44 145.51 183.44 145.51 169.93 161.3 169.93 161.3 179.28 165.46 179.28 165.46 169.93 168.65 169.93 168.65 183.44 172.81 183.44 172.81 169.93 189.06 169.93 189.06 198"/></g></svg>