<svg xmlns="http://www.w3.org/2000/svg" viewBox="0 0 266 266"><defs><style>.cls-1{fill:#0075c9;}.cls-2{fill:#fff;}</style></defs><g id="mono"><circle class="cls-1" cx="133.6" cy="133.01" r="128"/><path class="cls-2" d="M171.86,105.5a18,18,0,1,1-20.51,20.62A18,18,0,0,1,171.86,105.5Z"/><path class="cls-2" d="M112,76.2A24.23,24.23,0,1,1,84.35,104,24.21,24.21,0,0,1,112,76.2Z"/><path class="cls-2" d="M135.1,149.81v40.26H68.6V140.8a8.59,8.59,0,0,1,8.58-8.59H145a3,3,0,0,1,3,3v5.59a2.14,2.14,0,0,1-2.14,2.14H142A6.88,6.88,0,0,0,135.1,149.81Z"/><path class="cls-2" d="M198.6,190.07H139.65V153.48A6.37,6.37,0,0,1,146,147.1h46.19a6.38,6.38,0,0,1,6.38,6.38Z"/></g></svg>