<svg xmlns="http://www.w3.org/2000/svg" viewBox="0 0 266 266"><defs><style>.cls-1{fill:#0075c9;}.cls-2{fill:#fff;}</style></defs><g id="mono"><circle class="cls-1" cx="133.6" cy="133.01" r="128"/><path class="cls-2" d="M180.63,112a12.09,12.09,0,1,1-13.77,13.85A12.07,12.07,0,0,1,180.63,112Z"/><path class="cls-2" d="M136.07,92.35A16.28,16.28,0,1,1,117.52,111,16.25,16.25,0,0,1,136.07,92.35Z"/><path class="cls-2" d="M76.47,122a12.09,12.09,0,1,1,13.84,14A12.07,12.07,0,0,1,76.47,122Z"/><path class="cls-2" d="M108.19,173.84H68.6V144.26A4.28,4.28,0,0,1,72.88,140h31a4.28,4.28,0,0,1,4.28,4.29Z"/><path class="cls-2" d="M155.94,141.8v32H111.25v-32a4.62,4.62,0,0,0-4.62-4.62h-2.58a1.43,1.43,0,0,1-1.44-1.44V132a2,2,0,0,1,2-2h57.93a2,2,0,0,1,2,2v3.75a1.43,1.43,0,0,1-1.44,1.44h-2.58A4.62,4.62,0,0,0,155.94,141.8Z"/><path class="cls-2" d="M198.6,173.84H159V144.26a4.29,4.29,0,0,1,4.28-4.29h31a4.29,4.29,0,0,1,4.29,4.29Z"/></g></svg>