<svg xmlns="http://www.w3.org/2000/svg" viewBox="0 0 266 266"><defs><style>.cls-1{fill:#fff;}</style></defs><g id="mono"><path class="cls-1" d="M134.11,5A128,128,0,0,0,5,134.11C5.59,202.53,63.47,260.41,131.89,261A128,128,0,0,0,261,131.89C260.41,63.47,202.53,5.59,134.11,5ZM198,173.75H187.49a16,16,0,0,1-29.66,0H68v-12h89.83a16,16,0,0,1,29.66,0H198ZM198,139H147.83a16,16,0,0,1-29.66,0H68V127h50.17a16,16,0,0,1,29.66,0H198Zm0-34.75H108.17a16,16,0,0,1-29.66,0H68v-12H78.51a16,16,0,0,1,29.66,0H198Z"/></g></svg>