<svg xmlns="http://www.w3.org/2000/svg" viewBox="0 0 266 266"><defs><style>.cls-1{fill:#fff;}</style></defs><g id="mono"><path class="cls-1" d="M155.14,123.3c-.44,7.42-.27,33.7-.3,41.6h11.31V111.4h-9.29l-17.24,13.73,5.45,6.8A102.94,102.94,0,0,0,155.14,123.3Z"/><path class="cls-1" d="M180.22,96.89a5.68,5.68,0,1,0-6.56-6.57A5.69,5.69,0,0,0,180.22,96.89Z"/><path class="cls-1" d="M126.7,161.34q5.61-4.31,5.6-12a11,11,0,0,0-3.33-8.43q-3.33-3.13-9.8-3.93v-.22a15.76,15.76,0,0,0,8.52-4.83,12.59,12.59,0,0,0,3-8.53,10.83,10.83,0,0,0-4.81-9.37q-4.82-3.36-13.12-3.37a29.11,29.11,0,0,0-17.46,5.27l5.24,7.8a26.28,26.28,0,0,1,6-3,17.63,17.63,0,0,1,5.36-.88q7.62,0,7.61,6.08c0,2.63-.95,4.49-2.87,5.58s-4.94,1.63-9.09,1.63H103.5v8.67h4.07q6.72,0,9.8,1.57a5.53,5.53,0,0,1,3.08,5.35q0,4.2-2.67,6.11c-1.79,1.27-4.54,1.9-8.28,1.9a28.79,28.79,0,0,1-7.39-1,34.77,34.77,0,0,1-6.84-2.56v9.62a38.79,38.79,0,0,0,15.44,2.89Q121.11,165.63,126.7,161.34Z"/><path class="cls-1" d="M133.49,5a128,128,0,1,0,128,128A128,128,0,0,0,133.49,5Zm65,154.33-32.25,32H68.49V74.63h130Z"/><path class="cls-1" d="M88.68,96.89a5.68,5.68,0,1,0-6.57-6.57A5.7,5.7,0,0,0,88.68,96.89Z"/></g></svg>