<svg xmlns="http://www.w3.org/2000/svg" viewBox="0 0 266 266"><defs><style>.cls-1{fill:#fff;}</style></defs><g id="mono"><circle class="cls-1" cx="133" cy="133" r="27.5"/><path class="cls-1" d="M106.49,7.66A126.36,126.36,0,0,0,7.66,106.49c-17.22,85.86,51.53,160.74,135.73,154.1,62-4.89,112.31-55.16,117.2-117.2C267.23,59.19,192.35-9.56,106.49,7.66ZM198,146.93H177.05a44.24,44.24,0,0,1-3.05,7.38l14.81,14.8-19.7,19.7L154.3,174a46,46,0,0,1-7.37,3.07V198H119.07V177.05a45.1,45.1,0,0,1-7.38-3.05l-14.8,14.81-19.7-19.7L92,154.3a45.07,45.07,0,0,1-3.07-7.37H68V119.07H88.93A45.07,45.07,0,0,1,92,111.7L77.19,96.89l19.68-19.7L111.69,92a45.51,45.51,0,0,1,7.38-3.06V68h27.86V88.94A45,45,0,0,1,154.3,92l14.81-14.81L188.8,96.88,174,111.7a44.14,44.14,0,0,1,3.05,7.37H198Z"/></g></svg>