<svg xmlns="http://www.w3.org/2000/svg" viewBox="0 0 266 266"><defs><style>.cls-1{fill:#fff;}</style></defs><g id="mono"><path class="cls-1" d="M98,94a19,19,0,1,0,19,19A19,19,0,0,0,98,94Z"/><circle class="cls-1" cx="178" cy="162.17" r="14.81"/><path class="cls-1" d="M106.49,7.66A126.36,126.36,0,0,0,7.66,106.49c-17.22,85.86,51.53,160.74,135.73,154.1,62-4.89,112.31-55.16,117.2-117.2C267.23,59.19,192.35-9.56,106.49,7.66Zm16.51,144-10.25-10.25a32.62,32.62,0,0,1-5.1,2.12V158H88.35V143.5a32.69,32.69,0,0,1-5.11-2.11L73,151.64,59.36,138l10.25-10.25a31.68,31.68,0,0,1-2.12-5.1H53v-19.3H67.49a31.68,31.68,0,0,1,2.12-5.1L59.36,88,73,74.36,83.24,84.61a32.13,32.13,0,0,1,5.11-2.11V68h19.3V82.5a31.64,31.64,0,0,1,5.1,2.11L123,74.36,136.63,88,126.39,98.25a31.64,31.64,0,0,1,2.11,5.1H143v19.3H128.5a31.75,31.75,0,0,1-2.11,5.11L136.64,138Zm90,18H201.72a23.85,23.85,0,0,1-1.64,4l8,8-10.6,10.61-8-8a25.11,25.11,0,0,1-4,1.64v11.28h-15V185.89a25.22,25.22,0,0,1-4-1.64l-8,8L148,181.61l8-8a24.25,24.25,0,0,1-1.65-4H143v-15h11.27a23.78,23.78,0,0,1,1.65-4l-8-8,10.6-10.6,8,8a24.72,24.72,0,0,1,4-1.65V127.17h15v11.27a24.25,24.25,0,0,1,4,1.65l8-8,10.6,10.61-8,8a23.75,23.75,0,0,1,1.64,4H213Z"/></g></svg>