<svg xmlns="http://www.w3.org/2000/svg" viewBox="0 0 266 266"><defs><style>.cls-1{fill:#fff;}</style></defs><g id="mono"><path class="cls-1" d="M133,5A128,128,0,1,0,261,133,128,128,0,0,0,133,5Zm55.46,193H89.54V68h28.07V85.29H104.09v4.16h13.52v3.19h-9.36V96.8h9.36v15.79H104.09v4.16h13.52v3.18h-9.36v4.16h9.36v3.19H104.09v4.16h13.52v15.79h-9.36v4.16h9.36v3.19H104.09v4.16h13.52v11.19h8.46v13.52h4.16V169.93h3.18v9.36h4.16v-9.36h3.18v13.52h4.17V169.93h15.79v9.36h4.16v-9.36h3.18v13.52h4.16V169.93h16.25Z"/></g></svg>