<svg xmlns="http://www.w3.org/2000/svg" viewBox="0 0 266 266"><defs><style>.cls-1{fill:#fff;}</style></defs><g id="mono"><polygon class="cls-1" points="140.13 137.06 140.23 177.58 175.61 157.25 175.48 116.72 140.13 137.06"/><polygon class="cls-1" points="90.42 116.92 90.52 157.43 125.84 177.54 125.73 137.02 90.42 116.92"/><polygon class="cls-1" points="132.89 84.33 97.52 104.67 132.98 124.84 168.34 104.5 132.89 84.33"/><path class="cls-1" d="M133,5A128,128,0,1,0,261,133,128,128,0,0,0,133,5Zm14.41,184.8L133.16,198l-.14-.08-7-4-7.28-4.14L76.28,165.63l-.12-48.83,0-16.17,7.11-4.1L132.84,68l49.74,28.3,7.12,4.07.06,16.32.12,48.68Z"/></g></svg>