<svg xmlns="http://www.w3.org/2000/svg" viewBox="0 0 266 266"><defs><style>.cls-1{fill:#fff;}</style></defs><g id="mono"><path class="cls-1" d="M134.11,5A128,128,0,0,0,5,134.11C5.59,202.53,63.47,260.41,131.89,261A128,128,0,0,0,261,131.89C260.41,63.47,202.53,5.59,134.11,5Zm37.15,100.49a18,18,0,1,1-20.5,20.62A18,18,0,0,1,171.26,105.49Zm-59.89-29.3A24.24,24.24,0,1,1,83.76,104,24.22,24.22,0,0,1,111.37,76.19Zm23.14,73.62v40.25H68V140.8a8.58,8.58,0,0,1,8.59-8.59h67.77a3,3,0,0,1,3,3v5.59a2.14,2.14,0,0,1-2.14,2.14h-3.84A6.86,6.86,0,0,0,134.51,149.81ZM198,190.06H139.05V153.47a6.38,6.38,0,0,1,6.38-6.38h46.19a6.38,6.38,0,0,1,6.38,6.38Z"/></g></svg>