<svg xmlns="http://www.w3.org/2000/svg" viewBox="0 0 266 266"><defs><style>.cls-1{fill:#fff;}</style></defs><g id="mono"><path class="cls-1" d="M134.11,5A128,128,0,0,0,5,134.11C5.59,202.53,63.47,260.41,131.89,261A128,128,0,0,0,261,131.89C260.41,63.47,202.53,5.59,134.11,5ZM180,112a12.09,12.09,0,1,1-13.78,13.85A12.1,12.1,0,0,1,180,112ZM135.48,92.34A16.28,16.28,0,1,1,116.93,111,16.28,16.28,0,0,1,135.48,92.34ZM75.87,122a12.09,12.09,0,1,1,13.85,14A12.1,12.1,0,0,1,75.87,122Zm31.73,51.87H68V144.25A4.28,4.28,0,0,1,72.28,140h31a4.29,4.29,0,0,1,4.29,4.28Zm47.75-32v32h-44.7v-32a4.61,4.61,0,0,0-4.61-4.62h-2.59a1.43,1.43,0,0,1-1.43-1.43V132a2,2,0,0,1,2-2H162a2,2,0,0,1,2,2v3.76a1.43,1.43,0,0,1-1.43,1.43H160A4.61,4.61,0,0,0,155.35,141.79Zm42.65,32H158.4V144.25a4.29,4.29,0,0,1,4.29-4.28h31a4.28,4.28,0,0,1,4.28,4.28Z"/></g></svg>