<svg xmlns="http://www.w3.org/2000/svg" viewBox="0 0 266 266"><defs><style>.cls-1{fill:none;}.cls-2{fill:#0075c9;}</style></defs><g id="transparent"><circle class="cls-1" cx="131.66" cy="133" r="128"/><path class="cls-2" d="M196.66,173.75H186.15a16,16,0,0,1-29.66,0H66.66v-12h89.83a16,16,0,0,1,29.66,0h10.51Z"/><path class="cls-2" d="M196.66,139H146.49a16,16,0,0,1-29.66,0H66.66V127h50.17a16,16,0,0,1,29.66,0h50.17Z"/><path class="cls-2" d="M196.66,104.25H106.83a16,16,0,0,1-29.66,0H66.66v-12H77.17a16,16,0,0,1,29.66,0h89.83Z"/></g></svg>