<svg xmlns="http://www.w3.org/2000/svg" viewBox="0 0 266 266"><defs><style>.cls-1{fill:none;}.cls-2{fill:#0075c9;}</style></defs><g id="transparent"><circle class="cls-1" cx="130.47" cy="133" r="128"/><path class="cls-2" d="M65.47,74.63V191.37h97.75l32.25-32V74.63ZM90.3,92.25a5.68,5.68,0,1,1-6.56-6.56A5.7,5.7,0,0,1,90.3,92.25Zm33.39,69.09q-5.61,4.29-16,4.29a38.79,38.79,0,0,1-15.44-2.89v-9.62a35.1,35.1,0,0,0,6.85,2.56,28.68,28.68,0,0,0,7.39,1q5.6,0,8.27-1.9t2.67-6.11a5.54,5.54,0,0,0-3.07-5.35q-3.08-1.58-9.81-1.57h-4.06v-8.67h4.13c4.15,0,7.18-.55,9.09-1.63s2.88-2.95,2.88-5.58q0-6.08-7.61-6.08a17.64,17.64,0,0,0-5.37.88,26.48,26.48,0,0,0-6,3l-5.23-7.8a29.06,29.06,0,0,1,17.45-5.27q8.31,0,13.12,3.37a10.8,10.8,0,0,1,4.81,9.37,12.59,12.59,0,0,1-3,8.53,15.73,15.73,0,0,1-8.52,4.83V137c4.32.53,7.58,1.84,9.81,3.93a11.06,11.06,0,0,1,3.33,8.43Q129.29,157,123.69,161.34Zm39.44,3.56h-11.3c0-7.9-.15-34.18.29-41.6a102.88,102.88,0,0,1-10.06,8.63l-5.46-6.8,17.24-13.73h9.29Zm18.71-72.65a5.68,5.68,0,1,1-6.56-6.56A5.67,5.67,0,0,1,181.84,92.25Z"/></g></svg>