<svg xmlns="http://www.w3.org/2000/svg" viewBox="0 0 266 266"><defs><style>.cls-1{fill:none;}.cls-2{fill:#0075c9;}</style></defs><g id="transparent"><ellipse class="cls-1" cx="131.66" cy="133.01" rx="127.82" ry="128.15" transform="translate(-55.49 132.05) rotate(-45)"/><path class="cls-2" d="M159.16,133a27.5,27.5,0,1,1-27.5-27.5A27.5,27.5,0,0,1,159.16,133Zm37.5-13.94H175.71a44,44,0,0,0-3.05-7.37l14.8-14.81-19.69-19.7L153,92a44.14,44.14,0,0,0-7.37-3V68H117.73V89a45.47,45.47,0,0,0-7.38,3L95.54,77.2,75.85,96.9l14.81,14.8a44.89,44.89,0,0,0-3.06,7.37H66.66v27.87H87.6a44.53,44.53,0,0,0,3.06,7.37L75.85,169.12l19.7,19.7L110.35,174a46,46,0,0,0,7.38,3.05V198h27.86V177.07A45.93,45.93,0,0,0,153,174l14.81,14.81,19.7-19.7-14.81-14.8a43.41,43.41,0,0,0,3.05-7.38h20.95Z"/></g></svg>