<svg xmlns="http://www.w3.org/2000/svg" viewBox="0 0 266 266"><defs><style>.cls-1{fill:none;}.cls-2{fill:#0075c9;}</style></defs><g id="transparent"><ellipse class="cls-1" cx="131.66" cy="133.01" rx="127.82" ry="128.15" transform="translate(-55.49 132.05) rotate(-45)"/><path class="cls-2" d="M115.7,113a19,19,0,1,1-19-19A19,19,0,0,1,115.7,113Zm19.6,25-10.25-10.25a31.38,31.38,0,0,0,2.11-5.11h14.5V103.36h-14.5a31.64,31.64,0,0,0-2.11-5.1L135.29,88,121.66,74.37,111.41,84.62a31.68,31.68,0,0,0-5.1-2.12V68H87V82.5a33.13,33.13,0,0,0-5.11,2.12L71.65,74.37,58,88,68.27,98.26a31.68,31.68,0,0,0-2.12,5.1H51.66v19.29H66.15a31.31,31.31,0,0,0,2.12,5.1L58,138l13.64,13.64L81.9,141.39A30.87,30.87,0,0,0,87,143.5V158h19.3v-14.5a31.68,31.68,0,0,0,5.1-2.12l10.25,10.26Z"/><path class="cls-2" d="M211.66,169.68v-15H200.38a24.21,24.21,0,0,0-1.64-4l8-8-10.6-10.6-8,8a25.11,25.11,0,0,0-4-1.64V127.17h-15v11.28a25.62,25.62,0,0,0-4,1.64l-8-8-10.6,10.61,8,8a24.25,24.25,0,0,0-1.65,4H141.66v15h11.27a23.78,23.78,0,0,0,1.65,4l-8,8,10.61,10.61,8-8a24.31,24.31,0,0,0,4,1.64v11.28h15V185.9a24.25,24.25,0,0,0,4-1.65l8,8,10.6-10.61-8-8a24.21,24.21,0,0,0,1.64-4Zm-35,7.3a14.81,14.81,0,1,1,14.81-14.81A14.81,14.81,0,0,1,176.66,177Z"/></g></svg>