<svg xmlns="http://www.w3.org/2000/svg" viewBox="0 0 266 266"><defs><style>.cls-1{fill:none;}.cls-2{fill:#0075c9;}</style></defs><g id="transparent"><circle class="cls-1" cx="131.66" cy="133" r="128"/><polygon class="cls-2" points="187.13 198 116.27 198 88.2 198 88.2 169.93 88.2 68 116.27 68 116.27 85.3 102.75 85.3 102.75 89.45 116.27 89.45 116.27 92.64 106.91 92.64 106.91 96.8 116.27 96.8 116.27 112.59 102.75 112.59 102.75 116.75 116.27 116.75 116.27 119.94 106.91 119.94 106.91 124.09 116.27 124.09 116.27 127.28 102.75 127.28 102.75 131.44 116.27 131.44 116.27 147.23 106.91 147.23 106.91 151.39 116.27 151.39 116.27 154.57 102.75 154.57 102.75 158.74 116.27 158.74 116.27 169.93 124.73 169.93 124.73 183.44 128.89 183.44 128.89 169.93 132.07 169.93 132.07 179.28 136.23 179.28 136.23 169.93 139.42 169.93 139.42 183.44 143.58 183.44 143.58 169.93 159.37 169.93 159.37 179.28 163.53 179.28 163.53 169.93 166.71 169.93 166.71 183.44 170.87 183.44 170.87 169.93 187.13 169.93 187.13 198"/></g></svg>