<svg xmlns="http://www.w3.org/2000/svg" viewBox="0 0 266 266"><defs><style>.cls-1{fill:none;}.cls-2{fill:#0075c9;}</style></defs><g id="transparent"><ellipse class="cls-1" cx="130.47" cy="133.01" rx="127.82" ry="128.15" transform="translate(-55.84 131.21) rotate(-45)"/><circle class="cls-2" cx="126.41" cy="183.01" r="15"/><path class="cls-2" d="M165.85,115.62q-4.31,6.88-16.35,15.49-8.26,6.12-10.46,9.3a14.39,14.39,0,0,0-2.2,8.35v5.17H114v-6.37a28.18,28.18,0,0,1,3.53-14.38q3.52-6.12,12.91-13,9-6.47,11.92-10.51a15.14,15.14,0,0,0,2.89-9,9.8,9.8,0,0,0-4.14-8.53q-4.12-2.92-11.53-2.93-12.92,0-29.45,8.44L90.78,78.77A82,82,0,0,1,131.5,68q17.73,0,28.2,8.52t10.46,22.73A30.27,30.27,0,0,1,165.85,115.62Z"/></g></svg>