<svg xmlns="http://www.w3.org/2000/svg" viewBox="0 0 266 266"><defs><style>.cls-1{fill:none;}.cls-2{fill:#0075c9;}</style></defs><g id="transparent"><circle class="cls-1" cx="131.66" cy="133.01" r="128"/><path class="cls-2" d="M178.7,112a12.09,12.09,0,1,1-13.78,13.85A12.07,12.07,0,0,1,178.7,112Z"/><path class="cls-2" d="M134.14,92.35A16.28,16.28,0,1,1,115.59,111,16.26,16.26,0,0,1,134.14,92.35Z"/><path class="cls-2" d="M74.54,122a12.09,12.09,0,1,1,13.84,14A12.07,12.07,0,0,1,74.54,122Z"/><path class="cls-2" d="M106.26,173.84H66.66V144.26A4.29,4.29,0,0,1,71,140h31a4.29,4.29,0,0,1,4.29,4.29Z"/><path class="cls-2" d="M154,141.8v32h-44.7v-32a4.61,4.61,0,0,0-4.61-4.62h-2.59a1.43,1.43,0,0,1-1.43-1.44V132a2,2,0,0,1,2-2h57.94a2,2,0,0,1,2,2v3.75a1.43,1.43,0,0,1-1.43,1.44h-2.59A4.61,4.61,0,0,0,154,141.8Z"/><path class="cls-2" d="M196.66,173.84h-39.6V144.26a4.29,4.29,0,0,1,4.29-4.29h31a4.29,4.29,0,0,1,4.28,4.29Z"/></g></svg>