<svg xmlns="http://www.w3.org/2000/svg" viewBox="0 0 266 266"><defs><style>.cls-1{fill:none;}.cls-2{fill:#0075c9;}</style></defs><g id="transparent"><circle class="cls-1" cx="131.66" cy="133.01" r="128"/><path class="cls-2" d="M169.92,105.5a18,18,0,1,1-20.5,20.62A18,18,0,0,1,169.92,105.5Z"/><path class="cls-2" d="M110,76.2A24.23,24.23,0,1,1,82.42,104,24.2,24.2,0,0,1,110,76.2Z"/><path class="cls-2" d="M133.17,149.81v40.26H66.66V140.8a8.6,8.6,0,0,1,8.59-8.59H143a3,3,0,0,1,3,3v5.59a2.14,2.14,0,0,1-2.15,2.14H140A6.87,6.87,0,0,0,133.17,149.81Z"/><path class="cls-2" d="M196.66,190.07H137.71V153.48a6.38,6.38,0,0,1,6.38-6.38h46.19a6.38,6.38,0,0,1,6.38,6.38Z"/></g></svg>